<?xml version="1.0"?>
<svg xmlns="http://www.w3.org/2000/svg" xmlns:xlink="http://www.w3.org/1999/xlink" viewBox="0 0 514.100000 120.000000" width="257.050000mm" height="60.000000mm" version="1.1">
<rect x="1.000000" y="1.000000" width="513.100000" height="119.000000" rx="0" ry="0" style="stroke:none;fill:#cccccc;"/>
<rect x="0.000000" y="0.000000" width="513.100000" height="119.000000" rx="0" ry="0" style="stroke:none;fill:#ffffff;"/>
<text x="10.000000" y="7.000000" font-family="Arial" font-size="7"></text>
<a xlink:href="forceModel-0x7f4178619c80.svg">
<rect x="25.000000" y="49.000000" width="51.600000" height="24.000000" rx="0" ry="0" style="stroke:none;fill:#cccccc;"/>
<rect x="24.000000" y="48.000000" width="51.600000" height="24.000000" rx="0" ry="0" style="stroke:none;fill:#003366;"/>
</a>
<a xlink:href="forceModel-0x7f4178619c80.svg">
<text x="49.800000" y="62.000000" font-family="Arial" font-size="7" text-anchor="middle" fill="#FFFFFF">forceModel</text>
</a>
<circle cx="26.000000" cy="50.000000" r="1"/>
<a xlink:href="linInterpolat-0x7f41780afd10.svg">
<rect x="112.600000" y="25.000000" width="129.000000" height="72.000000" rx="0" ry="0" style="stroke:none;fill:#cccccc;"/>
<rect x="111.600000" y="24.000000" width="129.000000" height="72.000000" rx="0" ry="0" style="stroke:none;fill:#003366;"/>
</a>
<a xlink:href="linInterpolat-0x7f41780afd10.svg">
<text x="176.100000" y="62.000000" font-family="Arial" font-size="7" text-anchor="middle" fill="#FFFFFF">linInterpolat...2.0f, 0.01f))</text>
</a>
<circle cx="113.600000" cy="26.000000" r="1"/>
<line x1="108.600000" y1="27.000000" x2="111.600000" y2="28.000000"  transform="rotate(0.000000,111.600000,28.000000)" style="stroke: black; stroke-width:0.25;"/>
<line x1="108.600000" y1="29.000000" x2="111.600000" y2="28.000000"  transform="rotate(0.000000,111.600000,28.000000)" style="stroke: black; stroke-width:0.25;"/>
<line x1="108.600000" y1="35.000000" x2="111.600000" y2="36.000000"  transform="rotate(0.000000,111.600000,36.000000)" style="stroke: black; stroke-width:0.25;"/>
<line x1="108.600000" y1="37.000000" x2="111.600000" y2="36.000000"  transform="rotate(0.000000,111.600000,36.000000)" style="stroke: black; stroke-width:0.25;"/>
<line x1="108.600000" y1="43.000000" x2="111.600000" y2="44.000000"  transform="rotate(0.000000,111.600000,44.000000)" style="stroke: black; stroke-width:0.25;"/>
<line x1="108.600000" y1="45.000000" x2="111.600000" y2="44.000000"  transform="rotate(0.000000,111.600000,44.000000)" style="stroke: black; stroke-width:0.25;"/>
<line x1="108.600000" y1="51.000000" x2="111.600000" y2="52.000000"  transform="rotate(0.000000,111.600000,52.000000)" style="stroke: black; stroke-width:0.25;"/>
<line x1="108.600000" y1="53.000000" x2="111.600000" y2="52.000000"  transform="rotate(0.000000,111.600000,52.000000)" style="stroke: black; stroke-width:0.25;"/>
<line x1="108.600000" y1="59.000000" x2="111.600000" y2="60.000000"  transform="rotate(0.000000,111.600000,60.000000)" style="stroke: black; stroke-width:0.25;"/>
<line x1="108.600000" y1="61.000000" x2="111.600000" y2="60.000000"  transform="rotate(0.000000,111.600000,60.000000)" style="stroke: black; stroke-width:0.25;"/>
<line x1="108.600000" y1="67.000000" x2="111.600000" y2="68.000000"  transform="rotate(0.000000,111.600000,68.000000)" style="stroke: black; stroke-width:0.25;"/>
<line x1="108.600000" y1="69.000000" x2="111.600000" y2="68.000000"  transform="rotate(0.000000,111.600000,68.000000)" style="stroke: black; stroke-width:0.25;"/>
<line x1="108.600000" y1="75.000000" x2="111.600000" y2="76.000000"  transform="rotate(0.000000,111.600000,76.000000)" style="stroke: black; stroke-width:0.25;"/>
<line x1="108.600000" y1="77.000000" x2="111.600000" y2="76.000000"  transform="rotate(0.000000,111.600000,76.000000)" style="stroke: black; stroke-width:0.25;"/>
<line x1="108.600000" y1="83.000000" x2="111.600000" y2="84.000000"  transform="rotate(0.000000,111.600000,84.000000)" style="stroke: black; stroke-width:0.25;"/>
<line x1="108.600000" y1="85.000000" x2="111.600000" y2="84.000000"  transform="rotate(0.000000,111.600000,84.000000)" style="stroke: black; stroke-width:0.25;"/>
<line x1="108.600000" y1="91.000000" x2="111.600000" y2="92.000000"  transform="rotate(0.000000,111.600000,92.000000)" style="stroke: black; stroke-width:0.25;"/>
<line x1="108.600000" y1="93.000000" x2="111.600000" y2="92.000000"  transform="rotate(0.000000,111.600000,92.000000)" style="stroke: black; stroke-width:0.25;"/>
<a xlink:href="model-0x7f4178644bd0.svg">
<rect x="249.600000" y="25.000000" width="64.500000" height="72.000000" rx="0" ry="0" style="stroke:none;fill:#cccccc;"/>
<rect x="248.600000" y="24.000000" width="64.500000" height="72.000000" rx="0" ry="0" style="stroke:none;fill:#003366;"/>
</a>
<a xlink:href="model-0x7f4178644bd0.svg">
<text x="280.850000" y="62.000000" font-family="Arial" font-size="7" text-anchor="middle" fill="#FFFFFF">model(3)(3)(1)</text>
</a>
<circle cx="250.600000" cy="26.000000" r="1"/>
<line x1="245.600000" y1="27.000000" x2="248.600000" y2="28.000000"  transform="rotate(0.000000,248.600000,28.000000)" style="stroke: black; stroke-width:0.25;"/>
<line x1="245.600000" y1="29.000000" x2="248.600000" y2="28.000000"  transform="rotate(0.000000,248.600000,28.000000)" style="stroke: black; stroke-width:0.25;"/>
<line x1="245.600000" y1="35.000000" x2="248.600000" y2="36.000000"  transform="rotate(0.000000,248.600000,36.000000)" style="stroke: black; stroke-width:0.25;"/>
<line x1="245.600000" y1="37.000000" x2="248.600000" y2="36.000000"  transform="rotate(0.000000,248.600000,36.000000)" style="stroke: black; stroke-width:0.25;"/>
<line x1="245.600000" y1="43.000000" x2="248.600000" y2="44.000000"  transform="rotate(0.000000,248.600000,44.000000)" style="stroke: black; stroke-width:0.25;"/>
<line x1="245.600000" y1="45.000000" x2="248.600000" y2="44.000000"  transform="rotate(0.000000,248.600000,44.000000)" style="stroke: black; stroke-width:0.25;"/>
<line x1="245.600000" y1="51.000000" x2="248.600000" y2="52.000000"  transform="rotate(0.000000,248.600000,52.000000)" style="stroke: black; stroke-width:0.25;"/>
<line x1="245.600000" y1="53.000000" x2="248.600000" y2="52.000000"  transform="rotate(0.000000,248.600000,52.000000)" style="stroke: black; stroke-width:0.25;"/>
<line x1="245.600000" y1="59.000000" x2="248.600000" y2="60.000000"  transform="rotate(0.000000,248.600000,60.000000)" style="stroke: black; stroke-width:0.25;"/>
<line x1="245.600000" y1="61.000000" x2="248.600000" y2="60.000000"  transform="rotate(0.000000,248.600000,60.000000)" style="stroke: black; stroke-width:0.25;"/>
<line x1="245.600000" y1="67.000000" x2="248.600000" y2="68.000000"  transform="rotate(0.000000,248.600000,68.000000)" style="stroke: black; stroke-width:0.25;"/>
<line x1="245.600000" y1="69.000000" x2="248.600000" y2="68.000000"  transform="rotate(0.000000,248.600000,68.000000)" style="stroke: black; stroke-width:0.25;"/>
<line x1="245.600000" y1="75.000000" x2="248.600000" y2="76.000000"  transform="rotate(0.000000,248.600000,76.000000)" style="stroke: black; stroke-width:0.25;"/>
<line x1="245.600000" y1="77.000000" x2="248.600000" y2="76.000000"  transform="rotate(0.000000,248.600000,76.000000)" style="stroke: black; stroke-width:0.25;"/>
<line x1="245.600000" y1="83.000000" x2="248.600000" y2="84.000000"  transform="rotate(0.000000,248.600000,84.000000)" style="stroke: black; stroke-width:0.25;"/>
<line x1="245.600000" y1="85.000000" x2="248.600000" y2="84.000000"  transform="rotate(0.000000,248.600000,84.000000)" style="stroke: black; stroke-width:0.25;"/>
<line x1="245.600000" y1="91.000000" x2="248.600000" y2="92.000000"  transform="rotate(0.000000,248.600000,92.000000)" style="stroke: black; stroke-width:0.25;"/>
<line x1="245.600000" y1="93.000000" x2="248.600000" y2="92.000000"  transform="rotate(0.000000,248.600000,92.000000)" style="stroke: black; stroke-width:0.25;"/>
<a xlink:href="linInterpolat-0x7f417857af40.svg">
<rect x="322.100000" y="25.000000" width="129.000000" height="72.000000" rx="0" ry="0" style="stroke:none;fill:#cccccc;"/>
<rect x="321.100000" y="24.000000" width="129.000000" height="72.000000" rx="0" ry="0" style="stroke:none;fill:#003366;"/>
</a>
<a xlink:href="linInterpolat-0x7f417857af40.svg">
<text x="385.600000" y="62.000000" font-family="Arial" font-size="7" text-anchor="middle" fill="#FFFFFF">linInterpolat...2.0f, 0.01f))</text>
</a>
<circle cx="323.100000" cy="26.000000" r="1"/>
<line x1="318.100000" y1="27.000000" x2="321.100000" y2="28.000000"  transform="rotate(0.000000,321.100000,28.000000)" style="stroke: black; stroke-width:0.25;"/>
<line x1="318.100000" y1="29.000000" x2="321.100000" y2="28.000000"  transform="rotate(0.000000,321.100000,28.000000)" style="stroke: black; stroke-width:0.25;"/>
<line x1="318.100000" y1="35.000000" x2="321.100000" y2="36.000000"  transform="rotate(0.000000,321.100000,36.000000)" style="stroke: black; stroke-width:0.25;"/>
<line x1="318.100000" y1="37.000000" x2="321.100000" y2="36.000000"  transform="rotate(0.000000,321.100000,36.000000)" style="stroke: black; stroke-width:0.25;"/>
<line x1="318.100000" y1="43.000000" x2="321.100000" y2="44.000000"  transform="rotate(0.000000,321.100000,44.000000)" style="stroke: black; stroke-width:0.25;"/>
<line x1="318.100000" y1="45.000000" x2="321.100000" y2="44.000000"  transform="rotate(0.000000,321.100000,44.000000)" style="stroke: black; stroke-width:0.25;"/>
<line x1="318.100000" y1="51.000000" x2="321.100000" y2="52.000000"  transform="rotate(0.000000,321.100000,52.000000)" style="stroke: black; stroke-width:0.25;"/>
<line x1="318.100000" y1="53.000000" x2="321.100000" y2="52.000000"  transform="rotate(0.000000,321.100000,52.000000)" style="stroke: black; stroke-width:0.25;"/>
<line x1="318.100000" y1="59.000000" x2="321.100000" y2="60.000000"  transform="rotate(0.000000,321.100000,60.000000)" style="stroke: black; stroke-width:0.25;"/>
<line x1="318.100000" y1="61.000000" x2="321.100000" y2="60.000000"  transform="rotate(0.000000,321.100000,60.000000)" style="stroke: black; stroke-width:0.25;"/>
<line x1="318.100000" y1="67.000000" x2="321.100000" y2="68.000000"  transform="rotate(0.000000,321.100000,68.000000)" style="stroke: black; stroke-width:0.25;"/>
<line x1="318.100000" y1="69.000000" x2="321.100000" y2="68.000000"  transform="rotate(0.000000,321.100000,68.000000)" style="stroke: black; stroke-width:0.25;"/>
<line x1="318.100000" y1="75.000000" x2="321.100000" y2="76.000000"  transform="rotate(0.000000,321.100000,76.000000)" style="stroke: black; stroke-width:0.25;"/>
<line x1="318.100000" y1="77.000000" x2="321.100000" y2="76.000000"  transform="rotate(0.000000,321.100000,76.000000)" style="stroke: black; stroke-width:0.25;"/>
<line x1="318.100000" y1="83.000000" x2="321.100000" y2="84.000000"  transform="rotate(0.000000,321.100000,84.000000)" style="stroke: black; stroke-width:0.25;"/>
<line x1="318.100000" y1="85.000000" x2="321.100000" y2="84.000000"  transform="rotate(0.000000,321.100000,84.000000)" style="stroke: black; stroke-width:0.25;"/>
<line x1="318.100000" y1="91.000000" x2="321.100000" y2="92.000000"  transform="rotate(0.000000,321.100000,92.000000)" style="stroke: black; stroke-width:0.25;"/>
<line x1="318.100000" y1="93.000000" x2="321.100000" y2="92.000000"  transform="rotate(0.000000,321.100000,92.000000)" style="stroke: black; stroke-width:0.25;"/>
<line x1="15.000000" y1="15.000000" x2="15.000000" y2="105.000000"  style="stroke: black; stroke-linecap:round; stroke-width:0.25; stroke-dasharray:3,3;"/>
<line x1="15.000000" y1="105.000000" x2="499.100000" y2="105.000000"  style="stroke: black; stroke-linecap:round; stroke-width:0.25; stroke-dasharray:3,3;"/>
<line x1="499.100000" y1="105.000000" x2="499.100000" y2="15.000000"  style="stroke: black; stroke-linecap:round; stroke-width:0.25; stroke-dasharray:3,3;"/>
<line x1="15.000000" y1="15.000000" x2="20.000000" y2="15.000000"  style="stroke: black; stroke-linecap:round; stroke-width:0.25; stroke-dasharray:3,3;"/>
<line x1="49.025000" y1="15.000000" x2="499.100000" y2="15.000000"  style="stroke: black; stroke-linecap:round; stroke-width:0.25; stroke-dasharray:3,3;"/>
<text x="20.000000" y="17.000000" font-family="Arial" font-size="7">process</text>
<line x1="501.100000" y1="55.000000" x2="504.100000" y2="56.000000"  transform="rotate(0.000000,504.100000,56.000000)" style="stroke: black; stroke-width:0.25;"/>
<line x1="501.100000" y1="57.000000" x2="504.100000" y2="56.000000"  transform="rotate(0.000000,504.100000,56.000000)" style="stroke: black; stroke-width:0.25;"/>
<line x1="501.100000" y1="63.000000" x2="504.100000" y2="64.000000"  transform="rotate(0.000000,504.100000,64.000000)" style="stroke: black; stroke-width:0.25;"/>
<line x1="501.100000" y1="65.000000" x2="504.100000" y2="64.000000"  transform="rotate(0.000000,504.100000,64.000000)" style="stroke: black; stroke-width:0.25;"/>
<line x1="75.600000" y1="60.000000" x2="79.600000" y2="60.000000"  style="stroke:black; stroke-linecap:round; stroke-width:0.25;"/>
<line x1="79.600000" y1="60.000000" x2="107.600000" y2="28.000000"  style="stroke:black; stroke-linecap:round; stroke-width:0.25;"/>
<line x1="79.600000" y1="60.000000" x2="107.600000" y2="36.000000"  style="stroke:black; stroke-linecap:round; stroke-width:0.25;"/>
<line x1="79.600000" y1="60.000000" x2="107.600000" y2="44.000000"  style="stroke:black; stroke-linecap:round; stroke-width:0.25;"/>
<line x1="79.600000" y1="60.000000" x2="107.600000" y2="52.000000"  style="stroke:black; stroke-linecap:round; stroke-width:0.25;"/>
<line x1="79.600000" y1="60.000000" x2="107.600000" y2="60.000000"  style="stroke:black; stroke-linecap:round; stroke-width:0.25;"/>
<line x1="79.600000" y1="60.000000" x2="107.600000" y2="68.000000"  style="stroke:black; stroke-linecap:round; stroke-width:0.25;"/>
<line x1="79.600000" y1="60.000000" x2="107.600000" y2="76.000000"  style="stroke:black; stroke-linecap:round; stroke-width:0.25;"/>
<line x1="79.600000" y1="60.000000" x2="107.600000" y2="84.000000"  style="stroke:black; stroke-linecap:round; stroke-width:0.25;"/>
<line x1="79.600000" y1="60.000000" x2="107.600000" y2="92.000000"  style="stroke:black; stroke-linecap:round; stroke-width:0.25;"/>
<line x1="107.600000" y1="28.000000" x2="111.600000" y2="28.000000"  style="stroke:black; stroke-linecap:round; stroke-width:0.25;"/>
<line x1="107.600000" y1="36.000000" x2="111.600000" y2="36.000000"  style="stroke:black; stroke-linecap:round; stroke-width:0.25;"/>
<line x1="107.600000" y1="44.000000" x2="111.600000" y2="44.000000"  style="stroke:black; stroke-linecap:round; stroke-width:0.25;"/>
<line x1="107.600000" y1="52.000000" x2="111.600000" y2="52.000000"  style="stroke:black; stroke-linecap:round; stroke-width:0.25;"/>
<line x1="107.600000" y1="60.000000" x2="111.600000" y2="60.000000"  style="stroke:black; stroke-linecap:round; stroke-width:0.25;"/>
<line x1="107.600000" y1="68.000000" x2="111.600000" y2="68.000000"  style="stroke:black; stroke-linecap:round; stroke-width:0.25;"/>
<line x1="107.600000" y1="76.000000" x2="111.600000" y2="76.000000"  style="stroke:black; stroke-linecap:round; stroke-width:0.25;"/>
<line x1="107.600000" y1="84.000000" x2="111.600000" y2="84.000000"  style="stroke:black; stroke-linecap:round; stroke-width:0.25;"/>
<line x1="107.600000" y1="92.000000" x2="111.600000" y2="92.000000"  style="stroke:black; stroke-linecap:round; stroke-width:0.25;"/>
<line x1="240.600000" y1="28.000000" x2="244.600000" y2="28.000000"  style="stroke:black; stroke-linecap:round; stroke-width:0.25;"/>
<line x1="240.600000" y1="36.000000" x2="244.600000" y2="36.000000"  style="stroke:black; stroke-linecap:round; stroke-width:0.25;"/>
<line x1="240.600000" y1="44.000000" x2="244.600000" y2="44.000000"  style="stroke:black; stroke-linecap:round; stroke-width:0.25;"/>
<line x1="240.600000" y1="52.000000" x2="244.600000" y2="52.000000"  style="stroke:black; stroke-linecap:round; stroke-width:0.25;"/>
<line x1="240.600000" y1="60.000000" x2="244.600000" y2="60.000000"  style="stroke:black; stroke-linecap:round; stroke-width:0.25;"/>
<line x1="240.600000" y1="68.000000" x2="244.600000" y2="68.000000"  style="stroke:black; stroke-linecap:round; stroke-width:0.25;"/>
<line x1="240.600000" y1="76.000000" x2="244.600000" y2="76.000000"  style="stroke:black; stroke-linecap:round; stroke-width:0.25;"/>
<line x1="240.600000" y1="84.000000" x2="244.600000" y2="84.000000"  style="stroke:black; stroke-linecap:round; stroke-width:0.25;"/>
<line x1="240.600000" y1="92.000000" x2="244.600000" y2="92.000000"  style="stroke:black; stroke-linecap:round; stroke-width:0.25;"/>
<line x1="244.600000" y1="28.000000" x2="244.600000" y2="28.000000"  style="stroke:black; stroke-linecap:round; stroke-width:0.25;"/>
<line x1="244.600000" y1="28.000000" x2="248.600000" y2="28.000000"  style="stroke:black; stroke-linecap:round; stroke-width:0.25;"/>
<line x1="244.600000" y1="36.000000" x2="244.600000" y2="36.000000"  style="stroke:black; stroke-linecap:round; stroke-width:0.25;"/>
<line x1="244.600000" y1="36.000000" x2="248.600000" y2="36.000000"  style="stroke:black; stroke-linecap:round; stroke-width:0.25;"/>
<line x1="244.600000" y1="44.000000" x2="244.600000" y2="44.000000"  style="stroke:black; stroke-linecap:round; stroke-width:0.25;"/>
<line x1="244.600000" y1="44.000000" x2="248.600000" y2="44.000000"  style="stroke:black; stroke-linecap:round; stroke-width:0.25;"/>
<line x1="244.600000" y1="52.000000" x2="244.600000" y2="52.000000"  style="stroke:black; stroke-linecap:round; stroke-width:0.25;"/>
<line x1="244.600000" y1="52.000000" x2="248.600000" y2="52.000000"  style="stroke:black; stroke-linecap:round; stroke-width:0.25;"/>
<line x1="244.600000" y1="60.000000" x2="244.600000" y2="60.000000"  style="stroke:black; stroke-linecap:round; stroke-width:0.25;"/>
<line x1="244.600000" y1="60.000000" x2="248.600000" y2="60.000000"  style="stroke:black; stroke-linecap:round; stroke-width:0.25;"/>
<line x1="244.600000" y1="68.000000" x2="244.600000" y2="68.000000"  style="stroke:black; stroke-linecap:round; stroke-width:0.25;"/>
<line x1="244.600000" y1="68.000000" x2="248.600000" y2="68.000000"  style="stroke:black; stroke-linecap:round; stroke-width:0.25;"/>
<line x1="244.600000" y1="76.000000" x2="244.600000" y2="76.000000"  style="stroke:black; stroke-linecap:round; stroke-width:0.25;"/>
<line x1="244.600000" y1="76.000000" x2="248.600000" y2="76.000000"  style="stroke:black; stroke-linecap:round; stroke-width:0.25;"/>
<line x1="244.600000" y1="84.000000" x2="244.600000" y2="84.000000"  style="stroke:black; stroke-linecap:round; stroke-width:0.25;"/>
<line x1="244.600000" y1="84.000000" x2="248.600000" y2="84.000000"  style="stroke:black; stroke-linecap:round; stroke-width:0.25;"/>
<line x1="244.600000" y1="92.000000" x2="244.600000" y2="92.000000"  style="stroke:black; stroke-linecap:round; stroke-width:0.25;"/>
<line x1="244.600000" y1="92.000000" x2="248.600000" y2="92.000000"  style="stroke:black; stroke-linecap:round; stroke-width:0.25;"/>
<line x1="313.100000" y1="28.000000" x2="317.100000" y2="28.000000"  style="stroke:black; stroke-linecap:round; stroke-width:0.25;"/>
<line x1="313.100000" y1="36.000000" x2="317.100000" y2="36.000000"  style="stroke:black; stroke-linecap:round; stroke-width:0.25;"/>
<line x1="313.100000" y1="44.000000" x2="317.100000" y2="44.000000"  style="stroke:black; stroke-linecap:round; stroke-width:0.25;"/>
<line x1="313.100000" y1="52.000000" x2="317.100000" y2="52.000000"  style="stroke:black; stroke-linecap:round; stroke-width:0.25;"/>
<line x1="313.100000" y1="60.000000" x2="317.100000" y2="60.000000"  style="stroke:black; stroke-linecap:round; stroke-width:0.25;"/>
<line x1="313.100000" y1="68.000000" x2="317.100000" y2="68.000000"  style="stroke:black; stroke-linecap:round; stroke-width:0.25;"/>
<line x1="313.100000" y1="76.000000" x2="317.100000" y2="76.000000"  style="stroke:black; stroke-linecap:round; stroke-width:0.25;"/>
<line x1="313.100000" y1="84.000000" x2="317.100000" y2="84.000000"  style="stroke:black; stroke-linecap:round; stroke-width:0.25;"/>
<line x1="313.100000" y1="92.000000" x2="317.100000" y2="92.000000"  style="stroke:black; stroke-linecap:round; stroke-width:0.25;"/>
<line x1="317.100000" y1="28.000000" x2="317.100000" y2="28.000000"  style="stroke:black; stroke-linecap:round; stroke-width:0.25;"/>
<line x1="317.100000" y1="28.000000" x2="321.100000" y2="28.000000"  style="stroke:black; stroke-linecap:round; stroke-width:0.25;"/>
<line x1="317.100000" y1="36.000000" x2="317.100000" y2="36.000000"  style="stroke:black; stroke-linecap:round; stroke-width:0.25;"/>
<line x1="317.100000" y1="36.000000" x2="321.100000" y2="36.000000"  style="stroke:black; stroke-linecap:round; stroke-width:0.25;"/>
<line x1="317.100000" y1="44.000000" x2="317.100000" y2="44.000000"  style="stroke:black; stroke-linecap:round; stroke-width:0.25;"/>
<line x1="317.100000" y1="44.000000" x2="321.100000" y2="44.000000"  style="stroke:black; stroke-linecap:round; stroke-width:0.25;"/>
<line x1="317.100000" y1="52.000000" x2="317.100000" y2="52.000000"  style="stroke:black; stroke-linecap:round; stroke-width:0.25;"/>
<line x1="317.100000" y1="52.000000" x2="321.100000" y2="52.000000"  style="stroke:black; stroke-linecap:round; stroke-width:0.25;"/>
<line x1="317.100000" y1="60.000000" x2="317.100000" y2="60.000000"  style="stroke:black; stroke-linecap:round; stroke-width:0.25;"/>
<line x1="317.100000" y1="60.000000" x2="321.100000" y2="60.000000"  style="stroke:black; stroke-linecap:round; stroke-width:0.25;"/>
<line x1="317.100000" y1="68.000000" x2="317.100000" y2="68.000000"  style="stroke:black; stroke-linecap:round; stroke-width:0.25;"/>
<line x1="317.100000" y1="68.000000" x2="321.100000" y2="68.000000"  style="stroke:black; stroke-linecap:round; stroke-width:0.25;"/>
<line x1="317.100000" y1="76.000000" x2="317.100000" y2="76.000000"  style="stroke:black; stroke-linecap:round; stroke-width:0.25;"/>
<line x1="317.100000" y1="76.000000" x2="321.100000" y2="76.000000"  style="stroke:black; stroke-linecap:round; stroke-width:0.25;"/>
<line x1="317.100000" y1="84.000000" x2="317.100000" y2="84.000000"  style="stroke:black; stroke-linecap:round; stroke-width:0.25;"/>
<line x1="317.100000" y1="84.000000" x2="321.100000" y2="84.000000"  style="stroke:black; stroke-linecap:round; stroke-width:0.25;"/>
<line x1="317.100000" y1="92.000000" x2="317.100000" y2="92.000000"  style="stroke:black; stroke-linecap:round; stroke-width:0.25;"/>
<line x1="317.100000" y1="92.000000" x2="321.100000" y2="92.000000"  style="stroke:black; stroke-linecap:round; stroke-width:0.25;"/>
<line x1="450.100000" y1="60.000000" x2="454.100000" y2="60.000000"  style="stroke:black; stroke-linecap:round; stroke-width:0.25;"/>
<line x1="454.100000" y1="60.000000" x2="478.100000" y2="56.000000"  style="stroke:black; stroke-linecap:round; stroke-width:0.25;"/>
<line x1="454.100000" y1="60.000000" x2="478.100000" y2="64.000000"  style="stroke:black; stroke-linecap:round; stroke-width:0.25;"/>
<line x1="478.100000" y1="56.000000" x2="482.100000" y2="56.000000"  style="stroke:black; stroke-linecap:round; stroke-width:0.25;"/>
<line x1="478.100000" y1="64.000000" x2="482.100000" y2="64.000000"  style="stroke:black; stroke-linecap:round; stroke-width:0.25;"/>
<line x1="482.100000" y1="56.000000" x2="486.100000" y2="56.000000"  style="stroke:black; stroke-linecap:round; stroke-width:0.25;"/>
<line x1="482.100000" y1="64.000000" x2="486.100000" y2="64.000000"  style="stroke:black; stroke-linecap:round; stroke-width:0.25;"/>
<line x1="486.100000" y1="56.000000" x2="486.100000" y2="56.000000"  style="stroke:black; stroke-linecap:round; stroke-width:0.25;"/>
<line x1="486.100000" y1="56.000000" x2="490.100000" y2="56.000000"  style="stroke:black; stroke-linecap:round; stroke-width:0.25;"/>
<line x1="486.100000" y1="64.000000" x2="486.100000" y2="64.000000"  style="stroke:black; stroke-linecap:round; stroke-width:0.25;"/>
<line x1="486.100000" y1="64.000000" x2="490.100000" y2="64.000000"  style="stroke:black; stroke-linecap:round; stroke-width:0.25;"/>
<line x1="490.100000" y1="56.000000" x2="494.100000" y2="56.000000"  style="stroke:black; stroke-linecap:round; stroke-width:0.25;"/>
<line x1="490.100000" y1="64.000000" x2="494.100000" y2="64.000000"  style="stroke:black; stroke-linecap:round; stroke-width:0.25;"/>
<line x1="494.100000" y1="56.000000" x2="504.100000" y2="56.000000"  style="stroke:black; stroke-linecap:round; stroke-width:0.25;"/>
<line x1="494.100000" y1="64.000000" x2="504.100000" y2="64.000000"  style="stroke:black; stroke-linecap:round; stroke-width:0.25;"/>
</svg>
