<?xml version="1.0"?>
<svg xmlns="http://www.w3.org/2000/svg" xmlns:xlink="http://www.w3.org/1999/xlink" viewBox="0 0 192.500000 200.000000" width="96.250000mm" height="100.000000mm" version="1.1">
<a xlink:href="scheme-0x7f33481297a0.svg">
<rect x="1.000000" y="1.000000" width="191.500000" height="199.000000" rx="0" ry="0" style="stroke:none;fill:#cccccc;"/>
<rect x="0.000000" y="0.000000" width="191.500000" height="199.000000" rx="0" ry="0" style="stroke:none;fill:#ffffff;"/>
</a>
<text x="10.000000" y="7.000000" font-family="Arial" font-size="7"></text>
<a xlink:href="midCoeff-0x7f3348126a10.svg">
<rect x="37.900000" y="25.000000" width="38.700000" height="72.000000" rx="0" ry="0" style="stroke:none;fill:#cccccc;"/>
<rect x="36.900000" y="24.000000" width="38.700000" height="72.000000" rx="0" ry="0" style="stroke:none;fill:#003366;"/>
</a>
<a xlink:href="midCoeff-0x7f3348126a10.svg">
<text x="56.250000" y="62.000000" font-family="Arial" font-size="7" text-anchor="middle" fill="#FFFFFF">midCoeff</text>
</a>
<circle cx="38.900000" cy="26.000000" r="1"/>
<a xlink:href="midCoeffDelay1-0x55ffb88cb080.svg">
<rect x="25.000000" y="105.000000" width="64.500000" height="72.000000" rx="0" ry="0" style="stroke:none;fill:#cccccc;"/>
<rect x="24.000000" y="104.000000" width="64.500000" height="72.000000" rx="0" ry="0" style="stroke:none;fill:#003366;"/>
</a>
<a xlink:href="midCoeffDelay1-0x55ffb88cb080.svg">
<text x="56.250000" y="142.000000" font-family="Arial" font-size="7" text-anchor="middle" fill="#FFFFFF">midCoeffDelay1</text>
</a>
<circle cx="26.000000" cy="106.000000" r="1"/>
<line x1="15.000000" y1="15.000000" x2="15.000000" y2="185.000000"  style="stroke: black; stroke-linecap:round; stroke-width:0.25; stroke-dasharray:3,3;"/>
<line x1="15.000000" y1="185.000000" x2="177.500000" y2="185.000000"  style="stroke: black; stroke-linecap:round; stroke-width:0.25; stroke-dasharray:3,3;"/>
<line x1="177.500000" y1="185.000000" x2="177.500000" y2="15.000000"  style="stroke: black; stroke-linecap:round; stroke-width:0.25; stroke-dasharray:3,3;"/>
<line x1="15.000000" y1="15.000000" x2="20.000000" y2="15.000000"  style="stroke: black; stroke-linecap:round; stroke-width:0.25; stroke-dasharray:3,3;"/>
<line x1="65.150000" y1="15.000000" x2="177.500000" y2="15.000000"  style="stroke: black; stroke-linecap:round; stroke-width:0.25; stroke-dasharray:3,3;"/>
<text x="20.000000" y="17.000000" font-family="Arial" font-size="7">coefficients</text>
<line x1="179.500000" y1="31.000000" x2="182.500000" y2="32.000000"  transform="rotate(0.000000,182.500000,32.000000)" style="stroke: black; stroke-width:0.25;"/>
<line x1="179.500000" y1="33.000000" x2="182.500000" y2="32.000000"  transform="rotate(0.000000,182.500000,32.000000)" style="stroke: black; stroke-width:0.25;"/>
<line x1="179.500000" y1="39.000000" x2="182.500000" y2="40.000000"  transform="rotate(0.000000,182.500000,40.000000)" style="stroke: black; stroke-width:0.25;"/>
<line x1="179.500000" y1="41.000000" x2="182.500000" y2="40.000000"  transform="rotate(0.000000,182.500000,40.000000)" style="stroke: black; stroke-width:0.25;"/>
<line x1="179.500000" y1="47.000000" x2="182.500000" y2="48.000000"  transform="rotate(0.000000,182.500000,48.000000)" style="stroke: black; stroke-width:0.25;"/>
<line x1="179.500000" y1="49.000000" x2="182.500000" y2="48.000000"  transform="rotate(0.000000,182.500000,48.000000)" style="stroke: black; stroke-width:0.25;"/>
<line x1="179.500000" y1="55.000000" x2="182.500000" y2="56.000000"  transform="rotate(0.000000,182.500000,56.000000)" style="stroke: black; stroke-width:0.25;"/>
<line x1="179.500000" y1="57.000000" x2="182.500000" y2="56.000000"  transform="rotate(0.000000,182.500000,56.000000)" style="stroke: black; stroke-width:0.25;"/>
<line x1="179.500000" y1="63.000000" x2="182.500000" y2="64.000000"  transform="rotate(0.000000,182.500000,64.000000)" style="stroke: black; stroke-width:0.25;"/>
<line x1="179.500000" y1="65.000000" x2="182.500000" y2="64.000000"  transform="rotate(0.000000,182.500000,64.000000)" style="stroke: black; stroke-width:0.25;"/>
<line x1="179.500000" y1="71.000000" x2="182.500000" y2="72.000000"  transform="rotate(0.000000,182.500000,72.000000)" style="stroke: black; stroke-width:0.25;"/>
<line x1="179.500000" y1="73.000000" x2="182.500000" y2="72.000000"  transform="rotate(0.000000,182.500000,72.000000)" style="stroke: black; stroke-width:0.25;"/>
<line x1="179.500000" y1="79.000000" x2="182.500000" y2="80.000000"  transform="rotate(0.000000,182.500000,80.000000)" style="stroke: black; stroke-width:0.25;"/>
<line x1="179.500000" y1="81.000000" x2="182.500000" y2="80.000000"  transform="rotate(0.000000,182.500000,80.000000)" style="stroke: black; stroke-width:0.25;"/>
<line x1="179.500000" y1="87.000000" x2="182.500000" y2="88.000000"  transform="rotate(0.000000,182.500000,88.000000)" style="stroke: black; stroke-width:0.25;"/>
<line x1="179.500000" y1="89.000000" x2="182.500000" y2="88.000000"  transform="rotate(0.000000,182.500000,88.000000)" style="stroke: black; stroke-width:0.25;"/>
<line x1="179.500000" y1="95.000000" x2="182.500000" y2="96.000000"  transform="rotate(0.000000,182.500000,96.000000)" style="stroke: black; stroke-width:0.25;"/>
<line x1="179.500000" y1="97.000000" x2="182.500000" y2="96.000000"  transform="rotate(0.000000,182.500000,96.000000)" style="stroke: black; stroke-width:0.25;"/>
<line x1="179.500000" y1="103.000000" x2="182.500000" y2="104.000000"  transform="rotate(0.000000,182.500000,104.000000)" style="stroke: black; stroke-width:0.25;"/>
<line x1="179.500000" y1="105.000000" x2="182.500000" y2="104.000000"  transform="rotate(0.000000,182.500000,104.000000)" style="stroke: black; stroke-width:0.25;"/>
<line x1="179.500000" y1="111.000000" x2="182.500000" y2="112.000000"  transform="rotate(0.000000,182.500000,112.000000)" style="stroke: black; stroke-width:0.25;"/>
<line x1="179.500000" y1="113.000000" x2="182.500000" y2="112.000000"  transform="rotate(0.000000,182.500000,112.000000)" style="stroke: black; stroke-width:0.25;"/>
<line x1="179.500000" y1="119.000000" x2="182.500000" y2="120.000000"  transform="rotate(0.000000,182.500000,120.000000)" style="stroke: black; stroke-width:0.25;"/>
<line x1="179.500000" y1="121.000000" x2="182.500000" y2="120.000000"  transform="rotate(0.000000,182.500000,120.000000)" style="stroke: black; stroke-width:0.25;"/>
<line x1="179.500000" y1="127.000000" x2="182.500000" y2="128.000000"  transform="rotate(0.000000,182.500000,128.000000)" style="stroke: black; stroke-width:0.25;"/>
<line x1="179.500000" y1="129.000000" x2="182.500000" y2="128.000000"  transform="rotate(0.000000,182.500000,128.000000)" style="stroke: black; stroke-width:0.25;"/>
<line x1="179.500000" y1="135.000000" x2="182.500000" y2="136.000000"  transform="rotate(0.000000,182.500000,136.000000)" style="stroke: black; stroke-width:0.25;"/>
<line x1="179.500000" y1="137.000000" x2="182.500000" y2="136.000000"  transform="rotate(0.000000,182.500000,136.000000)" style="stroke: black; stroke-width:0.25;"/>
<line x1="179.500000" y1="143.000000" x2="182.500000" y2="144.000000"  transform="rotate(0.000000,182.500000,144.000000)" style="stroke: black; stroke-width:0.25;"/>
<line x1="179.500000" y1="145.000000" x2="182.500000" y2="144.000000"  transform="rotate(0.000000,182.500000,144.000000)" style="stroke: black; stroke-width:0.25;"/>
<line x1="179.500000" y1="151.000000" x2="182.500000" y2="152.000000"  transform="rotate(0.000000,182.500000,152.000000)" style="stroke: black; stroke-width:0.25;"/>
<line x1="179.500000" y1="153.000000" x2="182.500000" y2="152.000000"  transform="rotate(0.000000,182.500000,152.000000)" style="stroke: black; stroke-width:0.25;"/>
<line x1="179.500000" y1="159.000000" x2="182.500000" y2="160.000000"  transform="rotate(0.000000,182.500000,160.000000)" style="stroke: black; stroke-width:0.25;"/>
<line x1="179.500000" y1="161.000000" x2="182.500000" y2="160.000000"  transform="rotate(0.000000,182.500000,160.000000)" style="stroke: black; stroke-width:0.25;"/>
<line x1="179.500000" y1="167.000000" x2="182.500000" y2="168.000000"  transform="rotate(0.000000,182.500000,168.000000)" style="stroke: black; stroke-width:0.25;"/>
<line x1="179.500000" y1="169.000000" x2="182.500000" y2="168.000000"  transform="rotate(0.000000,182.500000,168.000000)" style="stroke: black; stroke-width:0.25;"/>
<line x1="75.600000" y1="28.000000" x2="79.600000" y2="28.000000"  style="stroke:black; stroke-linecap:round; stroke-width:0.25;"/>
<line x1="75.600000" y1="36.000000" x2="79.600000" y2="36.000000"  style="stroke:black; stroke-linecap:round; stroke-width:0.25;"/>
<line x1="75.600000" y1="44.000000" x2="79.600000" y2="44.000000"  style="stroke:black; stroke-linecap:round; stroke-width:0.25;"/>
<line x1="75.600000" y1="52.000000" x2="79.600000" y2="52.000000"  style="stroke:black; stroke-linecap:round; stroke-width:0.25;"/>
<line x1="75.600000" y1="60.000000" x2="79.600000" y2="60.000000"  style="stroke:black; stroke-linecap:round; stroke-width:0.25;"/>
<line x1="75.600000" y1="68.000000" x2="79.600000" y2="68.000000"  style="stroke:black; stroke-linecap:round; stroke-width:0.25;"/>
<line x1="75.600000" y1="76.000000" x2="79.600000" y2="76.000000"  style="stroke:black; stroke-linecap:round; stroke-width:0.25;"/>
<line x1="75.600000" y1="84.000000" x2="79.600000" y2="84.000000"  style="stroke:black; stroke-linecap:round; stroke-width:0.25;"/>
<line x1="75.600000" y1="92.000000" x2="79.600000" y2="92.000000"  style="stroke:black; stroke-linecap:round; stroke-width:0.25;"/>
<line x1="79.600000" y1="28.000000" x2="92.500000" y2="28.000000"  style="stroke:black; stroke-linecap:round; stroke-width:0.25;"/>
<line x1="79.600000" y1="36.000000" x2="92.500000" y2="36.000000"  style="stroke:black; stroke-linecap:round; stroke-width:0.25;"/>
<line x1="79.600000" y1="44.000000" x2="92.500000" y2="44.000000"  style="stroke:black; stroke-linecap:round; stroke-width:0.25;"/>
<line x1="79.600000" y1="52.000000" x2="92.500000" y2="52.000000"  style="stroke:black; stroke-linecap:round; stroke-width:0.25;"/>
<line x1="79.600000" y1="60.000000" x2="92.500000" y2="60.000000"  style="stroke:black; stroke-linecap:round; stroke-width:0.25;"/>
<line x1="79.600000" y1="68.000000" x2="92.500000" y2="68.000000"  style="stroke:black; stroke-linecap:round; stroke-width:0.25;"/>
<line x1="79.600000" y1="76.000000" x2="92.500000" y2="76.000000"  style="stroke:black; stroke-linecap:round; stroke-width:0.25;"/>
<line x1="79.600000" y1="84.000000" x2="92.500000" y2="84.000000"  style="stroke:black; stroke-linecap:round; stroke-width:0.25;"/>
<line x1="79.600000" y1="92.000000" x2="92.500000" y2="92.000000"  style="stroke:black; stroke-linecap:round; stroke-width:0.25;"/>
<line x1="88.500000" y1="108.000000" x2="92.500000" y2="108.000000"  style="stroke:black; stroke-linecap:round; stroke-width:0.25;"/>
<line x1="88.500000" y1="116.000000" x2="92.500000" y2="116.000000"  style="stroke:black; stroke-linecap:round; stroke-width:0.25;"/>
<line x1="88.500000" y1="124.000000" x2="92.500000" y2="124.000000"  style="stroke:black; stroke-linecap:round; stroke-width:0.25;"/>
<line x1="88.500000" y1="132.000000" x2="92.500000" y2="132.000000"  style="stroke:black; stroke-linecap:round; stroke-width:0.25;"/>
<line x1="88.500000" y1="140.000000" x2="92.500000" y2="140.000000"  style="stroke:black; stroke-linecap:round; stroke-width:0.25;"/>
<line x1="88.500000" y1="148.000000" x2="92.500000" y2="148.000000"  style="stroke:black; stroke-linecap:round; stroke-width:0.25;"/>
<line x1="88.500000" y1="156.000000" x2="92.500000" y2="156.000000"  style="stroke:black; stroke-linecap:round; stroke-width:0.25;"/>
<line x1="88.500000" y1="164.000000" x2="92.500000" y2="164.000000"  style="stroke:black; stroke-linecap:round; stroke-width:0.25;"/>
<line x1="88.500000" y1="172.000000" x2="92.500000" y2="172.000000"  style="stroke:black; stroke-linecap:round; stroke-width:0.25;"/>
<line x1="92.500000" y1="28.000000" x2="164.500000" y2="28.000000"  style="stroke:black; stroke-linecap:round; stroke-width:0.25;"/>
<line x1="92.500000" y1="36.000000" x2="156.500000" y2="36.000000"  style="stroke:black; stroke-linecap:round; stroke-width:0.25;"/>
<line x1="92.500000" y1="44.000000" x2="148.500000" y2="44.000000"  style="stroke:black; stroke-linecap:round; stroke-width:0.25;"/>
<line x1="92.500000" y1="52.000000" x2="140.500000" y2="52.000000"  style="stroke:black; stroke-linecap:round; stroke-width:0.25;"/>
<line x1="92.500000" y1="60.000000" x2="132.500000" y2="60.000000"  style="stroke:black; stroke-linecap:round; stroke-width:0.25;"/>
<line x1="92.500000" y1="68.000000" x2="124.500000" y2="68.000000"  style="stroke:black; stroke-linecap:round; stroke-width:0.25;"/>
<line x1="92.500000" y1="76.000000" x2="116.500000" y2="76.000000"  style="stroke:black; stroke-linecap:round; stroke-width:0.25;"/>
<line x1="92.500000" y1="84.000000" x2="108.500000" y2="84.000000"  style="stroke:black; stroke-linecap:round; stroke-width:0.25;"/>
<line x1="92.500000" y1="92.000000" x2="100.500000" y2="92.000000"  style="stroke:black; stroke-linecap:round; stroke-width:0.25;"/>
<line x1="92.500000" y1="104.000000" x2="164.500000" y2="104.000000"  style="stroke:black; stroke-linecap:round; stroke-width:0.25;"/>
<line x1="92.500000" y1="108.000000" x2="92.500000" y2="104.000000"  style="stroke:black; stroke-linecap:round; stroke-width:0.25;"/>
<line x1="92.500000" y1="108.000000" x2="92.500000" y2="108.000000"  style="stroke:black; stroke-linecap:round; stroke-width:0.25;"/>
<line x1="92.500000" y1="116.000000" x2="100.500000" y2="116.000000"  style="stroke:black; stroke-linecap:round; stroke-width:0.25;"/>
<line x1="92.500000" y1="124.000000" x2="108.500000" y2="124.000000"  style="stroke:black; stroke-linecap:round; stroke-width:0.25;"/>
<line x1="92.500000" y1="132.000000" x2="116.500000" y2="132.000000"  style="stroke:black; stroke-linecap:round; stroke-width:0.25;"/>
<line x1="92.500000" y1="140.000000" x2="124.500000" y2="140.000000"  style="stroke:black; stroke-linecap:round; stroke-width:0.25;"/>
<line x1="92.500000" y1="148.000000" x2="132.500000" y2="148.000000"  style="stroke:black; stroke-linecap:round; stroke-width:0.25;"/>
<line x1="92.500000" y1="156.000000" x2="140.500000" y2="156.000000"  style="stroke:black; stroke-linecap:round; stroke-width:0.25;"/>
<line x1="92.500000" y1="164.000000" x2="148.500000" y2="164.000000"  style="stroke:black; stroke-linecap:round; stroke-width:0.25;"/>
<line x1="92.500000" y1="172.000000" x2="156.500000" y2="172.000000"  style="stroke:black; stroke-linecap:round; stroke-width:0.25;"/>
<line x1="100.500000" y1="92.000000" x2="100.500000" y2="96.000000"  style="stroke:black; stroke-linecap:round; stroke-width:0.25;"/>
<line x1="100.500000" y1="96.000000" x2="164.500000" y2="96.000000"  style="stroke:black; stroke-linecap:round; stroke-width:0.25;"/>
<line x1="100.500000" y1="112.000000" x2="164.500000" y2="112.000000"  style="stroke:black; stroke-linecap:round; stroke-width:0.25;"/>
<line x1="100.500000" y1="116.000000" x2="100.500000" y2="112.000000"  style="stroke:black; stroke-linecap:round; stroke-width:0.25;"/>
<line x1="108.500000" y1="84.000000" x2="108.500000" y2="88.000000"  style="stroke:black; stroke-linecap:round; stroke-width:0.25;"/>
<line x1="108.500000" y1="88.000000" x2="164.500000" y2="88.000000"  style="stroke:black; stroke-linecap:round; stroke-width:0.25;"/>
<line x1="108.500000" y1="120.000000" x2="164.500000" y2="120.000000"  style="stroke:black; stroke-linecap:round; stroke-width:0.25;"/>
<line x1="108.500000" y1="124.000000" x2="108.500000" y2="120.000000"  style="stroke:black; stroke-linecap:round; stroke-width:0.25;"/>
<line x1="116.500000" y1="76.000000" x2="116.500000" y2="80.000000"  style="stroke:black; stroke-linecap:round; stroke-width:0.25;"/>
<line x1="116.500000" y1="80.000000" x2="164.500000" y2="80.000000"  style="stroke:black; stroke-linecap:round; stroke-width:0.25;"/>
<line x1="116.500000" y1="128.000000" x2="164.500000" y2="128.000000"  style="stroke:black; stroke-linecap:round; stroke-width:0.25;"/>
<line x1="116.500000" y1="132.000000" x2="116.500000" y2="128.000000"  style="stroke:black; stroke-linecap:round; stroke-width:0.25;"/>
<line x1="124.500000" y1="68.000000" x2="124.500000" y2="72.000000"  style="stroke:black; stroke-linecap:round; stroke-width:0.25;"/>
<line x1="124.500000" y1="72.000000" x2="164.500000" y2="72.000000"  style="stroke:black; stroke-linecap:round; stroke-width:0.25;"/>
<line x1="124.500000" y1="136.000000" x2="164.500000" y2="136.000000"  style="stroke:black; stroke-linecap:round; stroke-width:0.25;"/>
<line x1="124.500000" y1="140.000000" x2="124.500000" y2="136.000000"  style="stroke:black; stroke-linecap:round; stroke-width:0.25;"/>
<line x1="132.500000" y1="60.000000" x2="132.500000" y2="64.000000"  style="stroke:black; stroke-linecap:round; stroke-width:0.25;"/>
<line x1="132.500000" y1="64.000000" x2="164.500000" y2="64.000000"  style="stroke:black; stroke-linecap:round; stroke-width:0.25;"/>
<line x1="132.500000" y1="144.000000" x2="164.500000" y2="144.000000"  style="stroke:black; stroke-linecap:round; stroke-width:0.25;"/>
<line x1="132.500000" y1="148.000000" x2="132.500000" y2="144.000000"  style="stroke:black; stroke-linecap:round; stroke-width:0.25;"/>
<line x1="140.500000" y1="52.000000" x2="140.500000" y2="56.000000"  style="stroke:black; stroke-linecap:round; stroke-width:0.25;"/>
<line x1="140.500000" y1="56.000000" x2="164.500000" y2="56.000000"  style="stroke:black; stroke-linecap:round; stroke-width:0.25;"/>
<line x1="140.500000" y1="152.000000" x2="164.500000" y2="152.000000"  style="stroke:black; stroke-linecap:round; stroke-width:0.25;"/>
<line x1="140.500000" y1="156.000000" x2="140.500000" y2="152.000000"  style="stroke:black; stroke-linecap:round; stroke-width:0.25;"/>
<line x1="148.500000" y1="44.000000" x2="148.500000" y2="48.000000"  style="stroke:black; stroke-linecap:round; stroke-width:0.25;"/>
<line x1="148.500000" y1="48.000000" x2="164.500000" y2="48.000000"  style="stroke:black; stroke-linecap:round; stroke-width:0.25;"/>
<line x1="148.500000" y1="160.000000" x2="164.500000" y2="160.000000"  style="stroke:black; stroke-linecap:round; stroke-width:0.25;"/>
<line x1="148.500000" y1="164.000000" x2="148.500000" y2="160.000000"  style="stroke:black; stroke-linecap:round; stroke-width:0.25;"/>
<line x1="156.500000" y1="36.000000" x2="156.500000" y2="40.000000"  style="stroke:black; stroke-linecap:round; stroke-width:0.25;"/>
<line x1="156.500000" y1="40.000000" x2="164.500000" y2="40.000000"  style="stroke:black; stroke-linecap:round; stroke-width:0.25;"/>
<line x1="156.500000" y1="168.000000" x2="164.500000" y2="168.000000"  style="stroke:black; stroke-linecap:round; stroke-width:0.25;"/>
<line x1="156.500000" y1="172.000000" x2="156.500000" y2="168.000000"  style="stroke:black; stroke-linecap:round; stroke-width:0.25;"/>
<line x1="164.500000" y1="28.000000" x2="164.500000" y2="32.000000"  style="stroke:black; stroke-linecap:round; stroke-width:0.25;"/>
<line x1="164.500000" y1="32.000000" x2="164.500000" y2="32.000000"  style="stroke:black; stroke-linecap:round; stroke-width:0.25;"/>
<line x1="164.500000" y1="32.000000" x2="168.500000" y2="32.000000"  style="stroke:black; stroke-linecap:round; stroke-width:0.25;"/>
<line x1="164.500000" y1="40.000000" x2="168.500000" y2="40.000000"  style="stroke:black; stroke-linecap:round; stroke-width:0.25;"/>
<line x1="164.500000" y1="48.000000" x2="168.500000" y2="48.000000"  style="stroke:black; stroke-linecap:round; stroke-width:0.25;"/>
<line x1="164.500000" y1="56.000000" x2="168.500000" y2="56.000000"  style="stroke:black; stroke-linecap:round; stroke-width:0.25;"/>
<line x1="164.500000" y1="64.000000" x2="168.500000" y2="64.000000"  style="stroke:black; stroke-linecap:round; stroke-width:0.25;"/>
<line x1="164.500000" y1="72.000000" x2="168.500000" y2="72.000000"  style="stroke:black; stroke-linecap:round; stroke-width:0.25;"/>
<line x1="164.500000" y1="80.000000" x2="168.500000" y2="80.000000"  style="stroke:black; stroke-linecap:round; stroke-width:0.25;"/>
<line x1="164.500000" y1="88.000000" x2="168.500000" y2="88.000000"  style="stroke:black; stroke-linecap:round; stroke-width:0.25;"/>
<line x1="164.500000" y1="96.000000" x2="168.500000" y2="96.000000"  style="stroke:black; stroke-linecap:round; stroke-width:0.25;"/>
<line x1="164.500000" y1="104.000000" x2="168.500000" y2="104.000000"  style="stroke:black; stroke-linecap:round; stroke-width:0.25;"/>
<line x1="164.500000" y1="112.000000" x2="168.500000" y2="112.000000"  style="stroke:black; stroke-linecap:round; stroke-width:0.25;"/>
<line x1="164.500000" y1="120.000000" x2="168.500000" y2="120.000000"  style="stroke:black; stroke-linecap:round; stroke-width:0.25;"/>
<line x1="164.500000" y1="128.000000" x2="168.500000" y2="128.000000"  style="stroke:black; stroke-linecap:round; stroke-width:0.25;"/>
<line x1="164.500000" y1="136.000000" x2="168.500000" y2="136.000000"  style="stroke:black; stroke-linecap:round; stroke-width:0.25;"/>
<line x1="164.500000" y1="144.000000" x2="168.500000" y2="144.000000"  style="stroke:black; stroke-linecap:round; stroke-width:0.25;"/>
<line x1="164.500000" y1="152.000000" x2="168.500000" y2="152.000000"  style="stroke:black; stroke-linecap:round; stroke-width:0.25;"/>
<line x1="164.500000" y1="160.000000" x2="168.500000" y2="160.000000"  style="stroke:black; stroke-linecap:round; stroke-width:0.25;"/>
<line x1="164.500000" y1="168.000000" x2="168.500000" y2="168.000000"  style="stroke:black; stroke-linecap:round; stroke-width:0.25;"/>
<line x1="168.500000" y1="32.000000" x2="172.500000" y2="32.000000"  style="stroke:black; stroke-linecap:round; stroke-width:0.25;"/>
<line x1="168.500000" y1="40.000000" x2="172.500000" y2="40.000000"  style="stroke:black; stroke-linecap:round; stroke-width:0.25;"/>
<line x1="168.500000" y1="48.000000" x2="172.500000" y2="48.000000"  style="stroke:black; stroke-linecap:round; stroke-width:0.25;"/>
<line x1="168.500000" y1="56.000000" x2="172.500000" y2="56.000000"  style="stroke:black; stroke-linecap:round; stroke-width:0.25;"/>
<line x1="168.500000" y1="64.000000" x2="172.500000" y2="64.000000"  style="stroke:black; stroke-linecap:round; stroke-width:0.25;"/>
<line x1="168.500000" y1="72.000000" x2="172.500000" y2="72.000000"  style="stroke:black; stroke-linecap:round; stroke-width:0.25;"/>
<line x1="168.500000" y1="80.000000" x2="172.500000" y2="80.000000"  style="stroke:black; stroke-linecap:round; stroke-width:0.25;"/>
<line x1="168.500000" y1="88.000000" x2="172.500000" y2="88.000000"  style="stroke:black; stroke-linecap:round; stroke-width:0.25;"/>
<line x1="168.500000" y1="96.000000" x2="172.500000" y2="96.000000"  style="stroke:black; stroke-linecap:round; stroke-width:0.25;"/>
<line x1="168.500000" y1="104.000000" x2="172.500000" y2="104.000000"  style="stroke:black; stroke-linecap:round; stroke-width:0.25;"/>
<line x1="168.500000" y1="112.000000" x2="172.500000" y2="112.000000"  style="stroke:black; stroke-linecap:round; stroke-width:0.25;"/>
<line x1="168.500000" y1="120.000000" x2="172.500000" y2="120.000000"  style="stroke:black; stroke-linecap:round; stroke-width:0.25;"/>
<line x1="168.500000" y1="128.000000" x2="172.500000" y2="128.000000"  style="stroke:black; stroke-linecap:round; stroke-width:0.25;"/>
<line x1="168.500000" y1="136.000000" x2="172.500000" y2="136.000000"  style="stroke:black; stroke-linecap:round; stroke-width:0.25;"/>
<line x1="168.500000" y1="144.000000" x2="172.500000" y2="144.000000"  style="stroke:black; stroke-linecap:round; stroke-width:0.25;"/>
<line x1="168.500000" y1="152.000000" x2="172.500000" y2="152.000000"  style="stroke:black; stroke-linecap:round; stroke-width:0.25;"/>
<line x1="168.500000" y1="160.000000" x2="172.500000" y2="160.000000"  style="stroke:black; stroke-linecap:round; stroke-width:0.25;"/>
<line x1="168.500000" y1="168.000000" x2="172.500000" y2="168.000000"  style="stroke:black; stroke-linecap:round; stroke-width:0.25;"/>
<line x1="172.500000" y1="32.000000" x2="182.500000" y2="32.000000"  style="stroke:black; stroke-linecap:round; stroke-width:0.25;"/>
<line x1="172.500000" y1="40.000000" x2="182.500000" y2="40.000000"  style="stroke:black; stroke-linecap:round; stroke-width:0.25;"/>
<line x1="172.500000" y1="48.000000" x2="182.500000" y2="48.000000"  style="stroke:black; stroke-linecap:round; stroke-width:0.25;"/>
<line x1="172.500000" y1="56.000000" x2="182.500000" y2="56.000000"  style="stroke:black; stroke-linecap:round; stroke-width:0.25;"/>
<line x1="172.500000" y1="64.000000" x2="182.500000" y2="64.000000"  style="stroke:black; stroke-linecap:round; stroke-width:0.25;"/>
<line x1="172.500000" y1="72.000000" x2="182.500000" y2="72.000000"  style="stroke:black; stroke-linecap:round; stroke-width:0.25;"/>
<line x1="172.500000" y1="80.000000" x2="182.500000" y2="80.000000"  style="stroke:black; stroke-linecap:round; stroke-width:0.25;"/>
<line x1="172.500000" y1="88.000000" x2="182.500000" y2="88.000000"  style="stroke:black; stroke-linecap:round; stroke-width:0.25;"/>
<line x1="172.500000" y1="96.000000" x2="182.500000" y2="96.000000"  style="stroke:black; stroke-linecap:round; stroke-width:0.25;"/>
<line x1="172.500000" y1="104.000000" x2="182.500000" y2="104.000000"  style="stroke:black; stroke-linecap:round; stroke-width:0.25;"/>
<line x1="172.500000" y1="112.000000" x2="182.500000" y2="112.000000"  style="stroke:black; stroke-linecap:round; stroke-width:0.25;"/>
<line x1="172.500000" y1="120.000000" x2="182.500000" y2="120.000000"  style="stroke:black; stroke-linecap:round; stroke-width:0.25;"/>
<line x1="172.500000" y1="128.000000" x2="182.500000" y2="128.000000"  style="stroke:black; stroke-linecap:round; stroke-width:0.25;"/>
<line x1="172.500000" y1="136.000000" x2="182.500000" y2="136.000000"  style="stroke:black; stroke-linecap:round; stroke-width:0.25;"/>
<line x1="172.500000" y1="144.000000" x2="182.500000" y2="144.000000"  style="stroke:black; stroke-linecap:round; stroke-width:0.25;"/>
<line x1="172.500000" y1="152.000000" x2="182.500000" y2="152.000000"  style="stroke:black; stroke-linecap:round; stroke-width:0.25;"/>
<line x1="172.500000" y1="160.000000" x2="182.500000" y2="160.000000"  style="stroke:black; stroke-linecap:round; stroke-width:0.25;"/>
<line x1="172.500000" y1="168.000000" x2="182.500000" y2="168.000000"  style="stroke:black; stroke-linecap:round; stroke-width:0.25;"/>
</svg>
