<?xml version="1.0"?>
<svg xmlns="http://www.w3.org/2000/svg" xmlns:xlink="http://www.w3.org/1999/xlink" viewBox="0 0 513.100000 312.000000" width="256.550000mm" height="156.000000mm" version="1.1">
<a xlink:href="stairsOutput-0x7f334aa51860.svg">
<rect x="1.000000" y="1.000000" width="512.100000" height="311.000000" rx="0" ry="0" style="stroke:none;fill:#cccccc;"/>
<rect x="0.000000" y="0.000000" width="512.100000" height="311.000000" rx="0" ry="0" style="stroke:none;fill:#ffffff;"/>
</a>
<text x="10.000000" y="7.000000" font-family="Arial" font-size="7"></text>
<rect x="41.000000" y="129.000000" width="24.000000" height="24.000000" rx="0" ry="0" style="stroke:none;fill:#cccccc;"/>
<rect x="40.000000" y="128.000000" width="24.000000" height="24.000000" rx="0" ry="0" style="stroke:none;fill:#47945E;"/>
<text x="52.000000" y="142.000000" font-family="Arial" font-size="7" text-anchor="middle" fill="#FFFFFF">x</text>
<circle cx="42.000000" cy="130.000000" r="1"/>
<line x1="37.000000" y1="139.000000" x2="40.000000" y2="140.000000"  transform="rotate(0.000000,40.000000,140.000000)" style="stroke: black; stroke-width:0.25;"/>
<line x1="37.000000" y1="141.000000" x2="40.000000" y2="140.000000"  transform="rotate(0.000000,40.000000,140.000000)" style="stroke: black; stroke-width:0.25;"/>
<rect x="41.000000" y="161.000000" width="24.000000" height="24.000000" rx="0" ry="0" style="stroke:none;fill:#cccccc;"/>
<rect x="40.000000" y="160.000000" width="24.000000" height="24.000000" rx="0" ry="0" style="stroke:none;fill:#47945E;"/>
<text x="52.000000" y="174.000000" font-family="Arial" font-size="7" text-anchor="middle" fill="#FFFFFF">y</text>
<circle cx="42.000000" cy="162.000000" r="1"/>
<line x1="37.000000" y1="171.000000" x2="40.000000" y2="172.000000"  transform="rotate(0.000000,40.000000,172.000000)" style="stroke: black; stroke-width:0.25;"/>
<line x1="37.000000" y1="173.000000" x2="40.000000" y2="172.000000"  transform="rotate(0.000000,40.000000,172.000000)" style="stroke: black; stroke-width:0.25;"/>
<rect x="103.000000" y="35.000000" width="206.400000" height="24.000000" rx="0" ry="0" style="stroke:none;fill:#cccccc;"/>
<rect x="102.000000" y="34.000000" width="206.400000" height="24.000000" rx="0" ry="0" style="stroke:none;fill:#477881;"/>
<text x="205.200000" y="48.000000" font-family="Arial" font-size="7" text-anchor="middle" fill="#FFFFFF">hslider(output point y, 1.0f, 0.0f, 2.0f, 1.0f)</text>
<circle cx="104.000000" cy="36.000000" r="1"/>
<line x1="93.000000" y1="25.000000" x2="93.000000" y2="67.000000"  style="stroke: black; stroke-linecap:round; stroke-width:0.25; stroke-dasharray:3,3;"/>
<line x1="93.000000" y1="67.000000" x2="317.400000" y2="67.000000"  style="stroke: black; stroke-linecap:round; stroke-width:0.25; stroke-dasharray:3,3;"/>
<line x1="317.400000" y1="67.000000" x2="317.400000" y2="25.000000"  style="stroke: black; stroke-linecap:round; stroke-width:0.25; stroke-dasharray:3,3;"/>
<line x1="93.000000" y1="25.000000" x2="98.000000" y2="25.000000"  style="stroke: black; stroke-linecap:round; stroke-width:0.25; stroke-dasharray:3,3;"/>
<line x1="133.475000" y1="25.000000" x2="317.400000" y2="25.000000"  style="stroke: black; stroke-linecap:round; stroke-width:0.25; stroke-dasharray:3,3;"/>
<text x="98.000000" y="27.000000" font-family="Arial" font-size="7">outPointY</text>
<rect x="83.000000" y="87.000000" width="206.400000" height="24.000000" rx="0" ry="0" style="stroke:none;fill:#cccccc;"/>
<rect x="82.000000" y="86.000000" width="206.400000" height="24.000000" rx="0" ry="0" style="stroke:none;fill:#477881;"/>
<text x="185.200000" y="100.000000" font-family="Arial" font-size="7" text-anchor="middle" fill="#FFFFFF">hslider(output point x, 1.0f, 0.0f, 2.0f, 1.0f)</text>
<circle cx="84.000000" cy="88.000000" r="1"/>
<line x1="73.000000" y1="77.000000" x2="73.000000" y2="119.000000"  style="stroke: black; stroke-linecap:round; stroke-width:0.25; stroke-dasharray:3,3;"/>
<line x1="73.000000" y1="119.000000" x2="297.400000" y2="119.000000"  style="stroke: black; stroke-linecap:round; stroke-width:0.25; stroke-dasharray:3,3;"/>
<line x1="297.400000" y1="119.000000" x2="297.400000" y2="77.000000"  style="stroke: black; stroke-linecap:round; stroke-width:0.25; stroke-dasharray:3,3;"/>
<line x1="73.000000" y1="77.000000" x2="78.000000" y2="77.000000"  style="stroke: black; stroke-linecap:round; stroke-width:0.25; stroke-dasharray:3,3;"/>
<line x1="113.475000" y1="77.000000" x2="297.400000" y2="77.000000"  style="stroke: black; stroke-linecap:round; stroke-width:0.25; stroke-dasharray:3,3;"/>
<text x="78.000000" y="79.000000" font-family="Arial" font-size="7">outPointX</text>
<rect x="174.200000" y="139.000000" width="24.000000" height="24.000000" rx="0" ry="0" style="stroke:none;fill:#cccccc;"/>
<rect x="173.200000" y="138.000000" width="24.000000" height="24.000000" rx="0" ry="0" style="stroke:none;fill:#f44800;"/>
<text x="185.200000" y="152.000000" font-family="Arial" font-size="7" text-anchor="middle" fill="#FFFFFF">3</text>
<circle cx="175.200000" cy="140.000000" r="1"/>
<line x1="164.200000" y1="129.000000" x2="164.200000" y2="171.000000"  style="stroke: black; stroke-linecap:round; stroke-width:0.25; stroke-dasharray:3,3;"/>
<line x1="164.200000" y1="171.000000" x2="206.200000" y2="171.000000"  style="stroke: black; stroke-linecap:round; stroke-width:0.25; stroke-dasharray:3,3;"/>
<line x1="206.200000" y1="171.000000" x2="206.200000" y2="129.000000"  style="stroke: black; stroke-linecap:round; stroke-width:0.25; stroke-dasharray:3,3;"/>
<line x1="164.200000" y1="129.000000" x2="169.200000" y2="129.000000"  style="stroke: black; stroke-linecap:round; stroke-width:0.25; stroke-dasharray:3,3;"/>
<line x1="188.550000" y1="129.000000" x2="206.200000" y2="129.000000"  style="stroke: black; stroke-linecap:round; stroke-width:0.25; stroke-dasharray:3,3;"/>
<text x="169.200000" y="131.000000" font-family="Arial" font-size="7">left</text>
<rect x="315.400000" y="113.000000" width="24.000000" height="24.000000" rx="0" ry="0" style="stroke:none;fill:#cccccc;"/>
<rect x="314.400000" y="112.000000" width="24.000000" height="24.000000" rx="0" ry="0" style="stroke:none;fill:#4B71A1;"/>
<text x="326.400000" y="126.000000" font-family="Arial" font-size="7" text-anchor="middle" fill="#FFFFFF">*</text>
<circle cx="316.400000" cy="114.000000" r="1"/>
<line x1="311.400000" y1="119.000000" x2="314.400000" y2="120.000000"  transform="rotate(0.000000,314.400000,120.000000)" style="stroke: black; stroke-width:0.25;"/>
<line x1="311.400000" y1="121.000000" x2="314.400000" y2="120.000000"  transform="rotate(0.000000,314.400000,120.000000)" style="stroke: black; stroke-width:0.25;"/>
<line x1="311.400000" y1="127.000000" x2="314.400000" y2="128.000000"  transform="rotate(0.000000,314.400000,128.000000)" style="stroke: black; stroke-width:0.25;"/>
<line x1="311.400000" y1="129.000000" x2="314.400000" y2="128.000000"  transform="rotate(0.000000,314.400000,128.000000)" style="stroke: black; stroke-width:0.25;"/>
<rect x="355.400000" y="87.000000" width="24.000000" height="24.000000" rx="0" ry="0" style="stroke:none;fill:#cccccc;"/>
<rect x="354.400000" y="86.000000" width="24.000000" height="24.000000" rx="0" ry="0" style="stroke:none;fill:#4B71A1;"/>
<text x="366.400000" y="100.000000" font-family="Arial" font-size="7" text-anchor="middle" fill="#FFFFFF">+</text>
<circle cx="356.400000" cy="88.000000" r="1"/>
<line x1="351.400000" y1="93.000000" x2="354.400000" y2="94.000000"  transform="rotate(0.000000,354.400000,94.000000)" style="stroke: black; stroke-width:0.25;"/>
<line x1="351.400000" y1="95.000000" x2="354.400000" y2="94.000000"  transform="rotate(0.000000,354.400000,94.000000)" style="stroke: black; stroke-width:0.25;"/>
<line x1="351.400000" y1="101.000000" x2="354.400000" y2="102.000000"  transform="rotate(0.000000,354.400000,102.000000)" style="stroke: black; stroke-width:0.25;"/>
<line x1="351.400000" y1="103.000000" x2="354.400000" y2="102.000000"  transform="rotate(0.000000,354.400000,102.000000)" style="stroke: black; stroke-width:0.25;"/>
<rect x="214.200000" y="191.000000" width="24.000000" height="24.000000" rx="0" ry="0" style="stroke:none;fill:#cccccc;"/>
<rect x="213.200000" y="190.000000" width="24.000000" height="24.000000" rx="0" ry="0" style="stroke:none;fill:#f44800;"/>
<text x="225.200000" y="204.000000" font-family="Arial" font-size="7" text-anchor="middle" fill="#FFFFFF">2</text>
<circle cx="215.200000" cy="192.000000" r="1"/>
<line x1="204.200000" y1="181.000000" x2="204.200000" y2="223.000000"  style="stroke: black; stroke-linecap:round; stroke-width:0.25; stroke-dasharray:3,3;"/>
<line x1="204.200000" y1="223.000000" x2="246.200000" y2="223.000000"  style="stroke: black; stroke-linecap:round; stroke-width:0.25; stroke-dasharray:3,3;"/>
<line x1="246.200000" y1="223.000000" x2="246.200000" y2="181.000000"  style="stroke: black; stroke-linecap:round; stroke-width:0.25; stroke-dasharray:3,3;"/>
<line x1="204.200000" y1="181.000000" x2="209.200000" y2="181.000000"  style="stroke: black; stroke-linecap:round; stroke-width:0.25; stroke-dasharray:3,3;"/>
<line x1="231.775000" y1="181.000000" x2="246.200000" y2="181.000000"  style="stroke: black; stroke-linecap:round; stroke-width:0.25; stroke-dasharray:3,3;"/>
<text x="209.200000" y="183.000000" font-family="Arial" font-size="7">right</text>
<rect x="395.400000" y="113.000000" width="24.000000" height="24.000000" rx="0" ry="0" style="stroke:none;fill:#cccccc;"/>
<rect x="394.400000" y="112.000000" width="24.000000" height="24.000000" rx="0" ry="0" style="stroke:none;fill:#4B71A1;"/>
<text x="406.400000" y="126.000000" font-family="Arial" font-size="7" text-anchor="middle" fill="#FFFFFF">&gt;=</text>
<circle cx="396.400000" cy="114.000000" r="1"/>
<line x1="391.400000" y1="119.000000" x2="394.400000" y2="120.000000"  transform="rotate(0.000000,394.400000,120.000000)" style="stroke: black; stroke-width:0.25;"/>
<line x1="391.400000" y1="121.000000" x2="394.400000" y2="120.000000"  transform="rotate(0.000000,394.400000,120.000000)" style="stroke: black; stroke-width:0.25;"/>
<line x1="391.400000" y1="127.000000" x2="394.400000" y2="128.000000"  transform="rotate(0.000000,394.400000,128.000000)" style="stroke: black; stroke-width:0.25;"/>
<line x1="391.400000" y1="129.000000" x2="394.400000" y2="128.000000"  transform="rotate(0.000000,394.400000,128.000000)" style="stroke: black; stroke-width:0.25;"/>
<rect x="234.200000" y="233.000000" width="24.000000" height="24.000000" rx="0" ry="0" style="stroke:none;fill:#cccccc;"/>
<rect x="233.200000" y="232.000000" width="24.000000" height="24.000000" rx="0" ry="0" style="stroke:none;fill:#47945E;"/>
<text x="245.200000" y="246.000000" font-family="Arial" font-size="7" text-anchor="middle" fill="#FFFFFF">x</text>
<circle cx="235.200000" cy="234.000000" r="1"/>
<rect x="234.200000" y="265.000000" width="24.000000" height="24.000000" rx="0" ry="0" style="stroke:none;fill:#cccccc;"/>
<rect x="233.200000" y="264.000000" width="24.000000" height="24.000000" rx="0" ry="0" style="stroke:none;fill:#47945E;"/>
<text x="245.200000" y="278.000000" font-family="Arial" font-size="7" text-anchor="middle" fill="#FFFFFF">y</text>
<circle cx="235.200000" cy="266.000000" r="1"/>
<rect x="443.400000" y="145.000000" width="38.700000" height="24.000000" rx="0" ry="0" style="stroke:none;fill:#cccccc;"/>
<rect x="442.400000" y="144.000000" width="38.700000" height="24.000000" rx="0" ry="0" style="stroke:none;fill:#4B71A1;"/>
<text x="461.750000" y="158.000000" font-family="Arial" font-size="7" text-anchor="middle" fill="#FFFFFF">select2</text>
<circle cx="444.400000" cy="146.000000" r="1"/>
<line x1="439.400000" y1="147.000000" x2="442.400000" y2="148.000000"  transform="rotate(0.000000,442.400000,148.000000)" style="stroke: black; stroke-width:0.25;"/>
<line x1="439.400000" y1="149.000000" x2="442.400000" y2="148.000000"  transform="rotate(0.000000,442.400000,148.000000)" style="stroke: black; stroke-width:0.25;"/>
<line x1="439.400000" y1="155.000000" x2="442.400000" y2="156.000000"  transform="rotate(0.000000,442.400000,156.000000)" style="stroke: black; stroke-width:0.25;"/>
<line x1="439.400000" y1="157.000000" x2="442.400000" y2="156.000000"  transform="rotate(0.000000,442.400000,156.000000)" style="stroke: black; stroke-width:0.25;"/>
<line x1="439.400000" y1="163.000000" x2="442.400000" y2="164.000000"  transform="rotate(0.000000,442.400000,164.000000)" style="stroke: black; stroke-width:0.25;"/>
<line x1="439.400000" y1="165.000000" x2="442.400000" y2="164.000000"  transform="rotate(0.000000,442.400000,164.000000)" style="stroke: black; stroke-width:0.25;"/>
<line x1="15.000000" y1="15.000000" x2="15.000000" y2="297.000000"  style="stroke: black; stroke-linecap:round; stroke-width:0.25; stroke-dasharray:3,3;"/>
<line x1="15.000000" y1="297.000000" x2="498.100000" y2="297.000000"  style="stroke: black; stroke-linecap:round; stroke-width:0.25; stroke-dasharray:3,3;"/>
<line x1="498.100000" y1="297.000000" x2="498.100000" y2="15.000000"  style="stroke: black; stroke-linecap:round; stroke-width:0.25; stroke-dasharray:3,3;"/>
<line x1="15.000000" y1="15.000000" x2="20.000000" y2="15.000000"  style="stroke: black; stroke-linecap:round; stroke-width:0.25; stroke-dasharray:3,3;"/>
<line x1="129.650000" y1="15.000000" x2="498.100000" y2="15.000000"  style="stroke: black; stroke-linecap:round; stroke-width:0.25; stroke-dasharray:3,3;"/>
<text x="20.000000" y="17.000000" font-family="Arial" font-size="7">selector(hsli...),3 : *) : +)(2)</text>
<line x1="500.100000" y1="155.000000" x2="503.100000" y2="156.000000"  transform="rotate(0.000000,503.100000,156.000000)" style="stroke: black; stroke-width:0.25;"/>
<line x1="500.100000" y1="157.000000" x2="503.100000" y2="156.000000"  transform="rotate(0.000000,503.100000,156.000000)" style="stroke: black; stroke-width:0.25;"/>
<line x1="10.000000" y1="152.000000" x2="20.000000" y2="152.000000"  style="stroke:black; stroke-linecap:round; stroke-width:0.25;"/>
<line x1="10.000000" y1="160.000000" x2="20.000000" y2="160.000000"  style="stroke:black; stroke-linecap:round; stroke-width:0.25;"/>
<line x1="20.000000" y1="152.000000" x2="24.000000" y2="152.000000"  style="stroke:black; stroke-linecap:round; stroke-width:0.25;"/>
<line x1="20.000000" y1="160.000000" x2="24.000000" y2="160.000000"  style="stroke:black; stroke-linecap:round; stroke-width:0.25;"/>
<line x1="24.000000" y1="152.000000" x2="28.000000" y2="152.000000"  style="stroke:black; stroke-linecap:round; stroke-width:0.25;"/>
<line x1="24.000000" y1="160.000000" x2="28.000000" y2="160.000000"  style="stroke:black; stroke-linecap:round; stroke-width:0.25;"/>
<line x1="28.000000" y1="140.000000" x2="36.000000" y2="140.000000"  style="stroke:black; stroke-linecap:round; stroke-width:0.25;"/>
<line x1="28.000000" y1="152.000000" x2="28.000000" y2="140.000000"  style="stroke:black; stroke-linecap:round; stroke-width:0.25;"/>
<line x1="28.000000" y1="152.000000" x2="28.000000" y2="152.000000"  style="stroke:black; stroke-linecap:round; stroke-width:0.25;"/>
<line x1="28.000000" y1="160.000000" x2="36.000000" y2="160.000000"  style="stroke:black; stroke-linecap:round; stroke-width:0.25;"/>
<line x1="36.000000" y1="140.000000" x2="40.000000" y2="140.000000"  style="stroke:black; stroke-linecap:round; stroke-width:0.25;"/>
<line x1="36.000000" y1="160.000000" x2="36.000000" y2="172.000000"  style="stroke:black; stroke-linecap:round; stroke-width:0.25;"/>
<line x1="36.000000" y1="172.000000" x2="36.000000" y2="172.000000"  style="stroke:black; stroke-linecap:round; stroke-width:0.25;"/>
<line x1="36.000000" y1="172.000000" x2="40.000000" y2="172.000000"  style="stroke:black; stroke-linecap:round; stroke-width:0.25;"/>
<line x1="197.200000" y1="150.000000" x2="201.200000" y2="150.000000"  style="stroke:black; stroke-linecap:round; stroke-width:0.25;"/>
<line x1="201.200000" y1="150.000000" x2="211.200000" y2="150.000000"  style="stroke:black; stroke-linecap:round; stroke-width:0.25;"/>
<line x1="211.200000" y1="150.000000" x2="302.400000" y2="150.000000"  style="stroke:black; stroke-linecap:round; stroke-width:0.25;"/>
<line x1="237.200000" y1="202.000000" x2="241.200000" y2="202.000000"  style="stroke:black; stroke-linecap:round; stroke-width:0.25;"/>
<line x1="241.200000" y1="202.000000" x2="251.200000" y2="202.000000"  style="stroke:black; stroke-linecap:round; stroke-width:0.25;"/>
<line x1="251.200000" y1="202.000000" x2="382.400000" y2="202.000000"  style="stroke:black; stroke-linecap:round; stroke-width:0.25;"/>
<line x1="257.200000" y1="244.000000" x2="261.200000" y2="244.000000"  style="stroke:black; stroke-linecap:round; stroke-width:0.25;"/>
<line x1="257.200000" y1="276.000000" x2="261.200000" y2="276.000000"  style="stroke:black; stroke-linecap:round; stroke-width:0.25;"/>
<line x1="261.200000" y1="244.000000" x2="422.400000" y2="244.000000"  style="stroke:black; stroke-linecap:round; stroke-width:0.25;"/>
<line x1="261.200000" y1="276.000000" x2="422.400000" y2="276.000000"  style="stroke:black; stroke-linecap:round; stroke-width:0.25;"/>
<line x1="288.400000" y1="98.000000" x2="292.400000" y2="98.000000"  style="stroke:black; stroke-linecap:round; stroke-width:0.25;"/>
<line x1="292.400000" y1="98.000000" x2="302.400000" y2="98.000000"  style="stroke:black; stroke-linecap:round; stroke-width:0.25;"/>
<line x1="302.400000" y1="98.000000" x2="310.400000" y2="98.000000"  style="stroke:black; stroke-linecap:round; stroke-width:0.25;"/>
<line x1="302.400000" y1="128.000000" x2="310.400000" y2="128.000000"  style="stroke:black; stroke-linecap:round; stroke-width:0.25;"/>
<line x1="302.400000" y1="150.000000" x2="302.400000" y2="128.000000"  style="stroke:black; stroke-linecap:round; stroke-width:0.25;"/>
<line x1="302.400000" y1="150.000000" x2="302.400000" y2="150.000000"  style="stroke:black; stroke-linecap:round; stroke-width:0.25;"/>
<line x1="308.400000" y1="46.000000" x2="312.400000" y2="46.000000"  style="stroke:black; stroke-linecap:round; stroke-width:0.25;"/>
<line x1="310.400000" y1="98.000000" x2="310.400000" y2="120.000000"  style="stroke:black; stroke-linecap:round; stroke-width:0.25;"/>
<line x1="310.400000" y1="120.000000" x2="310.400000" y2="120.000000"  style="stroke:black; stroke-linecap:round; stroke-width:0.25;"/>
<line x1="310.400000" y1="120.000000" x2="314.400000" y2="120.000000"  style="stroke:black; stroke-linecap:round; stroke-width:0.25;"/>
<line x1="310.400000" y1="128.000000" x2="314.400000" y2="128.000000"  style="stroke:black; stroke-linecap:round; stroke-width:0.25;"/>
<line x1="312.400000" y1="46.000000" x2="322.400000" y2="46.000000"  style="stroke:black; stroke-linecap:round; stroke-width:0.25;"/>
<line x1="322.400000" y1="46.000000" x2="342.400000" y2="46.000000"  style="stroke:black; stroke-linecap:round; stroke-width:0.25;"/>
<line x1="338.400000" y1="124.000000" x2="342.400000" y2="124.000000"  style="stroke:black; stroke-linecap:round; stroke-width:0.25;"/>
<line x1="342.400000" y1="46.000000" x2="350.400000" y2="46.000000"  style="stroke:black; stroke-linecap:round; stroke-width:0.25;"/>
<line x1="342.400000" y1="102.000000" x2="350.400000" y2="102.000000"  style="stroke:black; stroke-linecap:round; stroke-width:0.25;"/>
<line x1="342.400000" y1="124.000000" x2="342.400000" y2="102.000000"  style="stroke:black; stroke-linecap:round; stroke-width:0.25;"/>
<line x1="342.400000" y1="124.000000" x2="342.400000" y2="124.000000"  style="stroke:black; stroke-linecap:round; stroke-width:0.25;"/>
<line x1="350.400000" y1="46.000000" x2="350.400000" y2="94.000000"  style="stroke:black; stroke-linecap:round; stroke-width:0.25;"/>
<line x1="350.400000" y1="94.000000" x2="350.400000" y2="94.000000"  style="stroke:black; stroke-linecap:round; stroke-width:0.25;"/>
<line x1="350.400000" y1="94.000000" x2="354.400000" y2="94.000000"  style="stroke:black; stroke-linecap:round; stroke-width:0.25;"/>
<line x1="350.400000" y1="102.000000" x2="354.400000" y2="102.000000"  style="stroke:black; stroke-linecap:round; stroke-width:0.25;"/>
<line x1="378.400000" y1="98.000000" x2="382.400000" y2="98.000000"  style="stroke:black; stroke-linecap:round; stroke-width:0.25;"/>
<line x1="382.400000" y1="98.000000" x2="390.400000" y2="98.000000"  style="stroke:black; stroke-linecap:round; stroke-width:0.25;"/>
<line x1="382.400000" y1="128.000000" x2="390.400000" y2="128.000000"  style="stroke:black; stroke-linecap:round; stroke-width:0.25;"/>
<line x1="382.400000" y1="202.000000" x2="382.400000" y2="128.000000"  style="stroke:black; stroke-linecap:round; stroke-width:0.25;"/>
<line x1="382.400000" y1="202.000000" x2="382.400000" y2="202.000000"  style="stroke:black; stroke-linecap:round; stroke-width:0.25;"/>
<line x1="390.400000" y1="98.000000" x2="390.400000" y2="120.000000"  style="stroke:black; stroke-linecap:round; stroke-width:0.25;"/>
<line x1="390.400000" y1="120.000000" x2="390.400000" y2="120.000000"  style="stroke:black; stroke-linecap:round; stroke-width:0.25;"/>
<line x1="390.400000" y1="120.000000" x2="394.400000" y2="120.000000"  style="stroke:black; stroke-linecap:round; stroke-width:0.25;"/>
<line x1="390.400000" y1="128.000000" x2="394.400000" y2="128.000000"  style="stroke:black; stroke-linecap:round; stroke-width:0.25;"/>
<line x1="418.400000" y1="124.000000" x2="422.400000" y2="124.000000"  style="stroke:black; stroke-linecap:round; stroke-width:0.25;"/>
<line x1="422.400000" y1="124.000000" x2="438.400000" y2="124.000000"  style="stroke:black; stroke-linecap:round; stroke-width:0.25;"/>
<line x1="422.400000" y1="156.000000" x2="438.400000" y2="156.000000"  style="stroke:black; stroke-linecap:round; stroke-width:0.25;"/>
<line x1="422.400000" y1="244.000000" x2="422.400000" y2="156.000000"  style="stroke:black; stroke-linecap:round; stroke-width:0.25;"/>
<line x1="422.400000" y1="244.000000" x2="422.400000" y2="244.000000"  style="stroke:black; stroke-linecap:round; stroke-width:0.25;"/>
<line x1="422.400000" y1="276.000000" x2="430.400000" y2="276.000000"  style="stroke:black; stroke-linecap:round; stroke-width:0.25;"/>
<line x1="430.400000" y1="164.000000" x2="438.400000" y2="164.000000"  style="stroke:black; stroke-linecap:round; stroke-width:0.25;"/>
<line x1="430.400000" y1="276.000000" x2="430.400000" y2="164.000000"  style="stroke:black; stroke-linecap:round; stroke-width:0.25;"/>
<line x1="438.400000" y1="124.000000" x2="438.400000" y2="148.000000"  style="stroke:black; stroke-linecap:round; stroke-width:0.25;"/>
<line x1="438.400000" y1="148.000000" x2="438.400000" y2="148.000000"  style="stroke:black; stroke-linecap:round; stroke-width:0.25;"/>
<line x1="438.400000" y1="148.000000" x2="442.400000" y2="148.000000"  style="stroke:black; stroke-linecap:round; stroke-width:0.25;"/>
<line x1="438.400000" y1="156.000000" x2="442.400000" y2="156.000000"  style="stroke:black; stroke-linecap:round; stroke-width:0.25;"/>
<line x1="438.400000" y1="164.000000" x2="442.400000" y2="164.000000"  style="stroke:black; stroke-linecap:round; stroke-width:0.25;"/>
<line x1="481.100000" y1="156.000000" x2="485.100000" y2="156.000000"  style="stroke:black; stroke-linecap:round; stroke-width:0.25;"/>
<line x1="485.100000" y1="156.000000" x2="485.100000" y2="156.000000"  style="stroke:black; stroke-linecap:round; stroke-width:0.25;"/>
<line x1="485.100000" y1="156.000000" x2="489.100000" y2="156.000000"  style="stroke:black; stroke-linecap:round; stroke-width:0.25;"/>
<line x1="489.100000" y1="156.000000" x2="493.100000" y2="156.000000"  style="stroke:black; stroke-linecap:round; stroke-width:0.25;"/>
<line x1="493.100000" y1="156.000000" x2="503.100000" y2="156.000000"  style="stroke:black; stroke-linecap:round; stroke-width:0.25;"/>
</svg>
