<?xml version="1.0"?>
<svg xmlns="http://www.w3.org/2000/svg" xmlns:xlink="http://www.w3.org/1999/xlink" viewBox="0 0 719.600000 176.000000" width="359.800000mm" height="88.000000mm" version="1.1">
<a xlink:href="process.svg">
<rect x="1.000000" y="1.000000" width="718.600000" height="175.000000" rx="0" ry="0" style="stroke:none;fill:#cccccc;"/>
<rect x="0.000000" y="0.000000" width="718.600000" height="175.000000" rx="0" ry="0" style="stroke:none;fill:#ffffff;"/>
</a>
<text x="10.000000" y="7.000000" font-family="Arial" font-size="7"></text>
<a xlink:href="selector-0x7f334aa337d0.svg">
<rect x="73.000000" y="25.000000" width="141.900000" height="24.000000" rx="0" ry="0" style="stroke:none;fill:#cccccc;"/>
<rect x="72.000000" y="24.000000" width="141.900000" height="24.000000" rx="0" ry="0" style="stroke:none;fill:#003366;"/>
</a>
<a xlink:href="selector-0x7f334aa337d0.svg">
<text x="142.950000" y="38.000000" font-family="Arial" font-size="7" text-anchor="middle" fill="#FFFFFF">selector(hsli...),3 : *) : +)(1)</text>
</a>
<circle cx="74.000000" cy="26.000000" r="1"/>
<line x1="69.000000" y1="31.000000" x2="72.000000" y2="32.000000"  transform="rotate(0.000000,72.000000,32.000000)" style="stroke: black; stroke-width:0.25;"/>
<line x1="69.000000" y1="33.000000" x2="72.000000" y2="32.000000"  transform="rotate(0.000000,72.000000,32.000000)" style="stroke: black; stroke-width:0.25;"/>
<line x1="69.000000" y1="39.000000" x2="72.000000" y2="40.000000"  transform="rotate(0.000000,72.000000,40.000000)" style="stroke: black; stroke-width:0.25;"/>
<line x1="69.000000" y1="41.000000" x2="72.000000" y2="40.000000"  transform="rotate(0.000000,72.000000,40.000000)" style="stroke: black; stroke-width:0.25;"/>
<a xlink:href="selector-0x7f334aa37ca0.svg">
<rect x="230.900000" y="29.000000" width="141.900000" height="24.000000" rx="0" ry="0" style="stroke:none;fill:#cccccc;"/>
<rect x="229.900000" y="28.000000" width="141.900000" height="24.000000" rx="0" ry="0" style="stroke:none;fill:#003366;"/>
</a>
<a xlink:href="selector-0x7f334aa37ca0.svg">
<text x="300.850000" y="42.000000" font-family="Arial" font-size="7" text-anchor="middle" fill="#FFFFFF">selector(hsli...),3 : *) : +)(2)</text>
</a>
<circle cx="231.900000" cy="30.000000" r="1"/>
<line x1="226.900000" y1="35.000000" x2="229.900000" y2="36.000000"  transform="rotate(0.000000,229.900000,36.000000)" style="stroke: black; stroke-width:0.25;"/>
<line x1="226.900000" y1="37.000000" x2="229.900000" y2="36.000000"  transform="rotate(0.000000,229.900000,36.000000)" style="stroke: black; stroke-width:0.25;"/>
<line x1="226.900000" y1="43.000000" x2="229.900000" y2="44.000000"  transform="rotate(0.000000,229.900000,44.000000)" style="stroke: black; stroke-width:0.25;"/>
<line x1="226.900000" y1="45.000000" x2="229.900000" y2="44.000000"  transform="rotate(0.000000,229.900000,44.000000)" style="stroke: black; stroke-width:0.25;"/>
<a xlink:href="selector-0x7f334aa3c080.svg">
<rect x="151.950000" y="65.000000" width="141.900000" height="24.000000" rx="0" ry="0" style="stroke:none;fill:#cccccc;"/>
<rect x="150.950000" y="64.000000" width="141.900000" height="24.000000" rx="0" ry="0" style="stroke:none;fill:#003366;"/>
</a>
<a xlink:href="selector-0x7f334aa3c080.svg">
<text x="221.900000" y="78.000000" font-family="Arial" font-size="7" text-anchor="middle" fill="#FFFFFF">selector(hsli...),3 : *) : +)(4)</text>
</a>
<circle cx="152.950000" cy="66.000000" r="1"/>
<line x1="147.950000" y1="71.000000" x2="150.950000" y2="72.000000"  transform="rotate(0.000000,150.950000,72.000000)" style="stroke: black; stroke-width:0.25;"/>
<line x1="147.950000" y1="73.000000" x2="150.950000" y2="72.000000"  transform="rotate(0.000000,150.950000,72.000000)" style="stroke: black; stroke-width:0.25;"/>
<line x1="147.950000" y1="79.000000" x2="150.950000" y2="80.000000"  transform="rotate(0.000000,150.950000,80.000000)" style="stroke: black; stroke-width:0.25;"/>
<line x1="147.950000" y1="81.000000" x2="150.950000" y2="80.000000"  transform="rotate(0.000000,150.950000,80.000000)" style="stroke: black; stroke-width:0.25;"/>
<a xlink:href="selector-0x7f334aa40550.svg">
<rect x="388.800000" y="45.000000" width="141.900000" height="24.000000" rx="0" ry="0" style="stroke:none;fill:#cccccc;"/>
<rect x="387.800000" y="44.000000" width="141.900000" height="24.000000" rx="0" ry="0" style="stroke:none;fill:#003366;"/>
</a>
<a xlink:href="selector-0x7f334aa40550.svg">
<text x="458.750000" y="58.000000" font-family="Arial" font-size="7" text-anchor="middle" fill="#FFFFFF">selector(hsli...),3 : *) : +)(3)</text>
</a>
<circle cx="389.800000" cy="46.000000" r="1"/>
<line x1="384.800000" y1="51.000000" x2="387.800000" y2="52.000000"  transform="rotate(0.000000,387.800000,52.000000)" style="stroke: black; stroke-width:0.25;"/>
<line x1="384.800000" y1="53.000000" x2="387.800000" y2="52.000000"  transform="rotate(0.000000,387.800000,52.000000)" style="stroke: black; stroke-width:0.25;"/>
<line x1="384.800000" y1="59.000000" x2="387.800000" y2="60.000000"  transform="rotate(0.000000,387.800000,60.000000)" style="stroke: black; stroke-width:0.25;"/>
<line x1="384.800000" y1="61.000000" x2="387.800000" y2="60.000000"  transform="rotate(0.000000,387.800000,60.000000)" style="stroke: black; stroke-width:0.25;"/>
<a xlink:href="selector-0x7f334aa44970.svg">
<rect x="151.950000" y="97.000000" width="141.900000" height="24.000000" rx="0" ry="0" style="stroke:none;fill:#cccccc;"/>
<rect x="150.950000" y="96.000000" width="141.900000" height="24.000000" rx="0" ry="0" style="stroke:none;fill:#003366;"/>
</a>
<a xlink:href="selector-0x7f334aa44970.svg">
<text x="221.900000" y="110.000000" font-family="Arial" font-size="7" text-anchor="middle" fill="#FFFFFF">selector(hsli...),3 : *) : +)(6)</text>
</a>
<circle cx="152.950000" cy="98.000000" r="1"/>
<line x1="147.950000" y1="103.000000" x2="150.950000" y2="104.000000"  transform="rotate(0.000000,150.950000,104.000000)" style="stroke: black; stroke-width:0.25;"/>
<line x1="147.950000" y1="105.000000" x2="150.950000" y2="104.000000"  transform="rotate(0.000000,150.950000,104.000000)" style="stroke: black; stroke-width:0.25;"/>
<line x1="147.950000" y1="111.000000" x2="150.950000" y2="112.000000"  transform="rotate(0.000000,150.950000,112.000000)" style="stroke: black; stroke-width:0.25;"/>
<line x1="147.950000" y1="113.000000" x2="150.950000" y2="112.000000"  transform="rotate(0.000000,150.950000,112.000000)" style="stroke: black; stroke-width:0.25;"/>
<a xlink:href="selector-0x7f334aa48d50.svg">
<rect x="151.950000" y="129.000000" width="141.900000" height="24.000000" rx="0" ry="0" style="stroke:none;fill:#cccccc;"/>
<rect x="150.950000" y="128.000000" width="141.900000" height="24.000000" rx="0" ry="0" style="stroke:none;fill:#003366;"/>
</a>
<a xlink:href="selector-0x7f334aa48d50.svg">
<text x="221.900000" y="142.000000" font-family="Arial" font-size="7" text-anchor="middle" fill="#FFFFFF">selector(hsli...),3 : *) : +)(8)</text>
</a>
<circle cx="152.950000" cy="130.000000" r="1"/>
<line x1="147.950000" y1="135.000000" x2="150.950000" y2="136.000000"  transform="rotate(0.000000,150.950000,136.000000)" style="stroke: black; stroke-width:0.25;"/>
<line x1="147.950000" y1="137.000000" x2="150.950000" y2="136.000000"  transform="rotate(0.000000,150.950000,136.000000)" style="stroke: black; stroke-width:0.25;"/>
<line x1="147.950000" y1="143.000000" x2="150.950000" y2="144.000000"  transform="rotate(0.000000,150.950000,144.000000)" style="stroke: black; stroke-width:0.25;"/>
<line x1="147.950000" y1="145.000000" x2="150.950000" y2="144.000000"  transform="rotate(0.000000,150.950000,144.000000)" style="stroke: black; stroke-width:0.25;"/>
<a xlink:href="selector-0x7f334aa4d220.svg">
<rect x="309.850000" y="113.000000" width="141.900000" height="24.000000" rx="0" ry="0" style="stroke:none;fill:#cccccc;"/>
<rect x="308.850000" y="112.000000" width="141.900000" height="24.000000" rx="0" ry="0" style="stroke:none;fill:#003366;"/>
</a>
<a xlink:href="selector-0x7f334aa4d220.svg">
<text x="379.800000" y="126.000000" font-family="Arial" font-size="7" text-anchor="middle" fill="#FFFFFF">selector(hsli...),3 : *) : +)(7)</text>
</a>
<circle cx="310.850000" cy="114.000000" r="1"/>
<line x1="305.850000" y1="119.000000" x2="308.850000" y2="120.000000"  transform="rotate(0.000000,308.850000,120.000000)" style="stroke: black; stroke-width:0.25;"/>
<line x1="305.850000" y1="121.000000" x2="308.850000" y2="120.000000"  transform="rotate(0.000000,308.850000,120.000000)" style="stroke: black; stroke-width:0.25;"/>
<line x1="305.850000" y1="127.000000" x2="308.850000" y2="128.000000"  transform="rotate(0.000000,308.850000,128.000000)" style="stroke: black; stroke-width:0.25;"/>
<line x1="305.850000" y1="129.000000" x2="308.850000" y2="128.000000"  transform="rotate(0.000000,308.850000,128.000000)" style="stroke: black; stroke-width:0.25;"/>
<a xlink:href="selector-0x7f334aa516f0.svg">
<rect x="546.700000" y="77.000000" width="141.900000" height="24.000000" rx="0" ry="0" style="stroke:none;fill:#cccccc;"/>
<rect x="545.700000" y="76.000000" width="141.900000" height="24.000000" rx="0" ry="0" style="stroke:none;fill:#003366;"/>
</a>
<a xlink:href="selector-0x7f334aa516f0.svg">
<text x="616.650000" y="90.000000" font-family="Arial" font-size="7" text-anchor="middle" fill="#FFFFFF">selector(hsli...),3 : *) : +)(5)</text>
</a>
<circle cx="547.700000" cy="78.000000" r="1"/>
<line x1="542.700000" y1="83.000000" x2="545.700000" y2="84.000000"  transform="rotate(0.000000,545.700000,84.000000)" style="stroke: black; stroke-width:0.25;"/>
<line x1="542.700000" y1="85.000000" x2="545.700000" y2="84.000000"  transform="rotate(0.000000,545.700000,84.000000)" style="stroke: black; stroke-width:0.25;"/>
<line x1="542.700000" y1="91.000000" x2="545.700000" y2="92.000000"  transform="rotate(0.000000,545.700000,92.000000)" style="stroke: black; stroke-width:0.25;"/>
<line x1="542.700000" y1="93.000000" x2="545.700000" y2="92.000000"  transform="rotate(0.000000,545.700000,92.000000)" style="stroke: black; stroke-width:0.25;"/>
<line x1="15.000000" y1="15.000000" x2="15.000000" y2="161.000000"  style="stroke: black; stroke-linecap:round; stroke-width:0.25; stroke-dasharray:3,3;"/>
<line x1="15.000000" y1="161.000000" x2="704.600000" y2="161.000000"  style="stroke: black; stroke-linecap:round; stroke-width:0.25; stroke-dasharray:3,3;"/>
<line x1="704.600000" y1="161.000000" x2="704.600000" y2="15.000000"  style="stroke: black; stroke-linecap:round; stroke-width:0.25; stroke-dasharray:3,3;"/>
<line x1="15.000000" y1="15.000000" x2="20.000000" y2="15.000000"  style="stroke: black; stroke-linecap:round; stroke-width:0.25; stroke-dasharray:3,3;"/>
<line x1="119.975000" y1="15.000000" x2="704.600000" y2="15.000000"  style="stroke: black; stroke-linecap:round; stroke-width:0.25; stroke-dasharray:3,3;"/>
<text x="20.000000" y="17.000000" font-family="Arial" font-size="7">stairsOutput(... 2.0f, 1.0f))</text>
<line x1="706.600000" y1="87.000000" x2="709.600000" y2="88.000000"  transform="rotate(0.000000,709.600000,88.000000)" style="stroke: black; stroke-width:0.25;"/>
<line x1="706.600000" y1="89.000000" x2="709.600000" y2="88.000000"  transform="rotate(0.000000,709.600000,88.000000)" style="stroke: black; stroke-width:0.25;"/>
<line x1="10.000000" y1="56.000000" x2="20.000000" y2="56.000000"  style="stroke:black; stroke-linecap:round; stroke-width:0.25;"/>
<line x1="10.000000" y1="64.000000" x2="20.000000" y2="64.000000"  style="stroke:black; stroke-linecap:round; stroke-width:0.25;"/>
<line x1="10.000000" y1="72.000000" x2="20.000000" y2="72.000000"  style="stroke:black; stroke-linecap:round; stroke-width:0.25;"/>
<line x1="10.000000" y1="80.000000" x2="20.000000" y2="80.000000"  style="stroke:black; stroke-linecap:round; stroke-width:0.25;"/>
<line x1="10.000000" y1="88.000000" x2="20.000000" y2="88.000000"  style="stroke:black; stroke-linecap:round; stroke-width:0.25;"/>
<line x1="10.000000" y1="96.000000" x2="20.000000" y2="96.000000"  style="stroke:black; stroke-linecap:round; stroke-width:0.25;"/>
<line x1="10.000000" y1="104.000000" x2="20.000000" y2="104.000000"  style="stroke:black; stroke-linecap:round; stroke-width:0.25;"/>
<line x1="10.000000" y1="112.000000" x2="20.000000" y2="112.000000"  style="stroke:black; stroke-linecap:round; stroke-width:0.25;"/>
<line x1="10.000000" y1="120.000000" x2="20.000000" y2="120.000000"  style="stroke:black; stroke-linecap:round; stroke-width:0.25;"/>
<line x1="20.000000" y1="56.000000" x2="24.000000" y2="56.000000"  style="stroke:black; stroke-linecap:round; stroke-width:0.25;"/>
<line x1="20.000000" y1="64.000000" x2="24.000000" y2="64.000000"  style="stroke:black; stroke-linecap:round; stroke-width:0.25;"/>
<line x1="20.000000" y1="72.000000" x2="24.000000" y2="72.000000"  style="stroke:black; stroke-linecap:round; stroke-width:0.25;"/>
<line x1="20.000000" y1="80.000000" x2="24.000000" y2="80.000000"  style="stroke:black; stroke-linecap:round; stroke-width:0.25;"/>
<line x1="20.000000" y1="88.000000" x2="24.000000" y2="88.000000"  style="stroke:black; stroke-linecap:round; stroke-width:0.25;"/>
<line x1="20.000000" y1="96.000000" x2="24.000000" y2="96.000000"  style="stroke:black; stroke-linecap:round; stroke-width:0.25;"/>
<line x1="20.000000" y1="104.000000" x2="24.000000" y2="104.000000"  style="stroke:black; stroke-linecap:round; stroke-width:0.25;"/>
<line x1="20.000000" y1="112.000000" x2="24.000000" y2="112.000000"  style="stroke:black; stroke-linecap:round; stroke-width:0.25;"/>
<line x1="20.000000" y1="120.000000" x2="24.000000" y2="120.000000"  style="stroke:black; stroke-linecap:round; stroke-width:0.25;"/>
<line x1="24.000000" y1="56.000000" x2="28.000000" y2="56.000000"  style="stroke:black; stroke-linecap:round; stroke-width:0.25;"/>
<line x1="24.000000" y1="64.000000" x2="28.000000" y2="64.000000"  style="stroke:black; stroke-linecap:round; stroke-width:0.25;"/>
<line x1="24.000000" y1="72.000000" x2="28.000000" y2="72.000000"  style="stroke:black; stroke-linecap:round; stroke-width:0.25;"/>
<line x1="24.000000" y1="80.000000" x2="28.000000" y2="80.000000"  style="stroke:black; stroke-linecap:round; stroke-width:0.25;"/>
<line x1="24.000000" y1="88.000000" x2="28.000000" y2="88.000000"  style="stroke:black; stroke-linecap:round; stroke-width:0.25;"/>
<line x1="24.000000" y1="96.000000" x2="28.000000" y2="96.000000"  style="stroke:black; stroke-linecap:round; stroke-width:0.25;"/>
<line x1="24.000000" y1="104.000000" x2="28.000000" y2="104.000000"  style="stroke:black; stroke-linecap:round; stroke-width:0.25;"/>
<line x1="24.000000" y1="112.000000" x2="28.000000" y2="112.000000"  style="stroke:black; stroke-linecap:round; stroke-width:0.25;"/>
<line x1="24.000000" y1="120.000000" x2="28.000000" y2="120.000000"  style="stroke:black; stroke-linecap:round; stroke-width:0.25;"/>
<line x1="28.000000" y1="32.000000" x2="68.000000" y2="32.000000"  style="stroke:black; stroke-linecap:round; stroke-width:0.25;"/>
<line x1="28.000000" y1="56.000000" x2="28.000000" y2="32.000000"  style="stroke:black; stroke-linecap:round; stroke-width:0.25;"/>
<line x1="28.000000" y1="56.000000" x2="28.000000" y2="56.000000"  style="stroke:black; stroke-linecap:round; stroke-width:0.25;"/>
<line x1="28.000000" y1="64.000000" x2="36.000000" y2="64.000000"  style="stroke:black; stroke-linecap:round; stroke-width:0.25;"/>
<line x1="28.000000" y1="72.000000" x2="44.000000" y2="72.000000"  style="stroke:black; stroke-linecap:round; stroke-width:0.25;"/>
<line x1="28.000000" y1="80.000000" x2="52.000000" y2="80.000000"  style="stroke:black; stroke-linecap:round; stroke-width:0.25;"/>
<line x1="28.000000" y1="88.000000" x2="60.000000" y2="88.000000"  style="stroke:black; stroke-linecap:round; stroke-width:0.25;"/>
<line x1="28.000000" y1="96.000000" x2="68.000000" y2="96.000000"  style="stroke:black; stroke-linecap:round; stroke-width:0.25;"/>
<line x1="28.000000" y1="104.000000" x2="60.000000" y2="104.000000"  style="stroke:black; stroke-linecap:round; stroke-width:0.25;"/>
<line x1="28.000000" y1="112.000000" x2="52.000000" y2="112.000000"  style="stroke:black; stroke-linecap:round; stroke-width:0.25;"/>
<line x1="28.000000" y1="120.000000" x2="44.000000" y2="120.000000"  style="stroke:black; stroke-linecap:round; stroke-width:0.25;"/>
<line x1="36.000000" y1="40.000000" x2="68.000000" y2="40.000000"  style="stroke:black; stroke-linecap:round; stroke-width:0.25;"/>
<line x1="36.000000" y1="64.000000" x2="36.000000" y2="40.000000"  style="stroke:black; stroke-linecap:round; stroke-width:0.25;"/>
<line x1="44.000000" y1="56.000000" x2="68.000000" y2="56.000000"  style="stroke:black; stroke-linecap:round; stroke-width:0.25;"/>
<line x1="44.000000" y1="72.000000" x2="44.000000" y2="56.000000"  style="stroke:black; stroke-linecap:round; stroke-width:0.25;"/>
<line x1="44.000000" y1="120.000000" x2="44.000000" y2="144.000000"  style="stroke:black; stroke-linecap:round; stroke-width:0.25;"/>
<line x1="44.000000" y1="144.000000" x2="68.000000" y2="144.000000"  style="stroke:black; stroke-linecap:round; stroke-width:0.25;"/>
<line x1="52.000000" y1="72.000000" x2="68.000000" y2="72.000000"  style="stroke:black; stroke-linecap:round; stroke-width:0.25;"/>
<line x1="52.000000" y1="80.000000" x2="52.000000" y2="72.000000"  style="stroke:black; stroke-linecap:round; stroke-width:0.25;"/>
<line x1="52.000000" y1="112.000000" x2="52.000000" y2="136.000000"  style="stroke:black; stroke-linecap:round; stroke-width:0.25;"/>
<line x1="52.000000" y1="136.000000" x2="68.000000" y2="136.000000"  style="stroke:black; stroke-linecap:round; stroke-width:0.25;"/>
<line x1="60.000000" y1="80.000000" x2="68.000000" y2="80.000000"  style="stroke:black; stroke-linecap:round; stroke-width:0.25;"/>
<line x1="60.000000" y1="88.000000" x2="60.000000" y2="80.000000"  style="stroke:black; stroke-linecap:round; stroke-width:0.25;"/>
<line x1="60.000000" y1="104.000000" x2="60.000000" y2="112.000000"  style="stroke:black; stroke-linecap:round; stroke-width:0.25;"/>
<line x1="60.000000" y1="112.000000" x2="68.000000" y2="112.000000"  style="stroke:black; stroke-linecap:round; stroke-width:0.25;"/>
<line x1="68.000000" y1="56.000000" x2="142.950000" y2="56.000000"  style="stroke:black; stroke-linecap:round; stroke-width:0.25;"/>
<line x1="68.000000" y1="72.000000" x2="146.950000" y2="72.000000"  style="stroke:black; stroke-linecap:round; stroke-width:0.25;"/>
<line x1="68.000000" y1="80.000000" x2="146.950000" y2="80.000000"  style="stroke:black; stroke-linecap:round; stroke-width:0.25;"/>
<line x1="68.000000" y1="32.000000" x2="68.000000" y2="32.000000"  style="stroke:black; stroke-linecap:round; stroke-width:0.25;"/>
<line x1="68.000000" y1="32.000000" x2="72.000000" y2="32.000000"  style="stroke:black; stroke-linecap:round; stroke-width:0.25;"/>
<line x1="68.000000" y1="40.000000" x2="68.000000" y2="40.000000"  style="stroke:black; stroke-linecap:round; stroke-width:0.25;"/>
<line x1="68.000000" y1="40.000000" x2="72.000000" y2="40.000000"  style="stroke:black; stroke-linecap:round; stroke-width:0.25;"/>
<line x1="68.000000" y1="96.000000" x2="68.000000" y2="104.000000"  style="stroke:black; stroke-linecap:round; stroke-width:0.25;"/>
<line x1="68.000000" y1="104.000000" x2="68.000000" y2="104.000000"  style="stroke:black; stroke-linecap:round; stroke-width:0.25;"/>
<line x1="68.000000" y1="104.000000" x2="146.950000" y2="104.000000"  style="stroke:black; stroke-linecap:round; stroke-width:0.25;"/>
<line x1="68.000000" y1="112.000000" x2="146.950000" y2="112.000000"  style="stroke:black; stroke-linecap:round; stroke-width:0.25;"/>
<line x1="68.000000" y1="136.000000" x2="146.950000" y2="136.000000"  style="stroke:black; stroke-linecap:round; stroke-width:0.25;"/>
<line x1="68.000000" y1="144.000000" x2="146.950000" y2="144.000000"  style="stroke:black; stroke-linecap:round; stroke-width:0.25;"/>
<line x1="142.950000" y1="56.000000" x2="217.900000" y2="56.000000"  style="stroke:black; stroke-linecap:round; stroke-width:0.25;"/>
<line x1="146.950000" y1="72.000000" x2="146.950000" y2="72.000000"  style="stroke:black; stroke-linecap:round; stroke-width:0.25;"/>
<line x1="146.950000" y1="72.000000" x2="150.950000" y2="72.000000"  style="stroke:black; stroke-linecap:round; stroke-width:0.25;"/>
<line x1="146.950000" y1="80.000000" x2="146.950000" y2="80.000000"  style="stroke:black; stroke-linecap:round; stroke-width:0.25;"/>
<line x1="146.950000" y1="80.000000" x2="150.950000" y2="80.000000"  style="stroke:black; stroke-linecap:round; stroke-width:0.25;"/>
<line x1="146.950000" y1="104.000000" x2="146.950000" y2="104.000000"  style="stroke:black; stroke-linecap:round; stroke-width:0.25;"/>
<line x1="146.950000" y1="104.000000" x2="150.950000" y2="104.000000"  style="stroke:black; stroke-linecap:round; stroke-width:0.25;"/>
<line x1="146.950000" y1="112.000000" x2="146.950000" y2="112.000000"  style="stroke:black; stroke-linecap:round; stroke-width:0.25;"/>
<line x1="146.950000" y1="112.000000" x2="150.950000" y2="112.000000"  style="stroke:black; stroke-linecap:round; stroke-width:0.25;"/>
<line x1="146.950000" y1="136.000000" x2="146.950000" y2="136.000000"  style="stroke:black; stroke-linecap:round; stroke-width:0.25;"/>
<line x1="146.950000" y1="136.000000" x2="150.950000" y2="136.000000"  style="stroke:black; stroke-linecap:round; stroke-width:0.25;"/>
<line x1="146.950000" y1="144.000000" x2="146.950000" y2="144.000000"  style="stroke:black; stroke-linecap:round; stroke-width:0.25;"/>
<line x1="146.950000" y1="144.000000" x2="150.950000" y2="144.000000"  style="stroke:black; stroke-linecap:round; stroke-width:0.25;"/>
<line x1="213.900000" y1="36.000000" x2="217.900000" y2="36.000000"  style="stroke:black; stroke-linecap:round; stroke-width:0.25;"/>
<line x1="217.900000" y1="44.000000" x2="225.900000" y2="44.000000"  style="stroke:black; stroke-linecap:round; stroke-width:0.25;"/>
<line x1="217.900000" y1="56.000000" x2="217.900000" y2="44.000000"  style="stroke:black; stroke-linecap:round; stroke-width:0.25;"/>
<line x1="217.900000" y1="56.000000" x2="217.900000" y2="56.000000"  style="stroke:black; stroke-linecap:round; stroke-width:0.25;"/>
<line x1="217.900000" y1="36.000000" x2="225.900000" y2="36.000000"  style="stroke:black; stroke-linecap:round; stroke-width:0.25;"/>
<line x1="225.900000" y1="36.000000" x2="229.900000" y2="36.000000"  style="stroke:black; stroke-linecap:round; stroke-width:0.25;"/>
<line x1="225.900000" y1="44.000000" x2="229.900000" y2="44.000000"  style="stroke:black; stroke-linecap:round; stroke-width:0.25;"/>
<line x1="292.850000" y1="76.000000" x2="296.850000" y2="76.000000"  style="stroke:black; stroke-linecap:round; stroke-width:0.25;"/>
<line x1="292.850000" y1="108.000000" x2="296.850000" y2="108.000000"  style="stroke:black; stroke-linecap:round; stroke-width:0.25;"/>
<line x1="292.850000" y1="140.000000" x2="296.850000" y2="140.000000"  style="stroke:black; stroke-linecap:round; stroke-width:0.25;"/>
<line x1="296.850000" y1="76.000000" x2="375.800000" y2="76.000000"  style="stroke:black; stroke-linecap:round; stroke-width:0.25;"/>
<line x1="296.850000" y1="108.000000" x2="304.850000" y2="108.000000"  style="stroke:black; stroke-linecap:round; stroke-width:0.25;"/>
<line x1="296.850000" y1="128.000000" x2="304.850000" y2="128.000000"  style="stroke:black; stroke-linecap:round; stroke-width:0.25;"/>
<line x1="296.850000" y1="140.000000" x2="296.850000" y2="128.000000"  style="stroke:black; stroke-linecap:round; stroke-width:0.25;"/>
<line x1="296.850000" y1="140.000000" x2="296.850000" y2="140.000000"  style="stroke:black; stroke-linecap:round; stroke-width:0.25;"/>
<line x1="304.850000" y1="108.000000" x2="304.850000" y2="120.000000"  style="stroke:black; stroke-linecap:round; stroke-width:0.25;"/>
<line x1="304.850000" y1="120.000000" x2="304.850000" y2="120.000000"  style="stroke:black; stroke-linecap:round; stroke-width:0.25;"/>
<line x1="304.850000" y1="120.000000" x2="308.850000" y2="120.000000"  style="stroke:black; stroke-linecap:round; stroke-width:0.25;"/>
<line x1="304.850000" y1="128.000000" x2="308.850000" y2="128.000000"  style="stroke:black; stroke-linecap:round; stroke-width:0.25;"/>
<line x1="371.800000" y1="40.000000" x2="375.800000" y2="40.000000"  style="stroke:black; stroke-linecap:round; stroke-width:0.25;"/>
<line x1="375.800000" y1="40.000000" x2="383.800000" y2="40.000000"  style="stroke:black; stroke-linecap:round; stroke-width:0.25;"/>
<line x1="375.800000" y1="60.000000" x2="383.800000" y2="60.000000"  style="stroke:black; stroke-linecap:round; stroke-width:0.25;"/>
<line x1="375.800000" y1="76.000000" x2="375.800000" y2="60.000000"  style="stroke:black; stroke-linecap:round; stroke-width:0.25;"/>
<line x1="375.800000" y1="76.000000" x2="375.800000" y2="76.000000"  style="stroke:black; stroke-linecap:round; stroke-width:0.25;"/>
<line x1="383.800000" y1="40.000000" x2="383.800000" y2="52.000000"  style="stroke:black; stroke-linecap:round; stroke-width:0.25;"/>
<line x1="383.800000" y1="52.000000" x2="383.800000" y2="52.000000"  style="stroke:black; stroke-linecap:round; stroke-width:0.25;"/>
<line x1="383.800000" y1="52.000000" x2="387.800000" y2="52.000000"  style="stroke:black; stroke-linecap:round; stroke-width:0.25;"/>
<line x1="383.800000" y1="60.000000" x2="387.800000" y2="60.000000"  style="stroke:black; stroke-linecap:round; stroke-width:0.25;"/>
<line x1="450.750000" y1="124.000000" x2="454.750000" y2="124.000000"  style="stroke:black; stroke-linecap:round; stroke-width:0.25;"/>
<line x1="454.750000" y1="124.000000" x2="533.700000" y2="124.000000"  style="stroke:black; stroke-linecap:round; stroke-width:0.25;"/>
<line x1="529.700000" y1="56.000000" x2="533.700000" y2="56.000000"  style="stroke:black; stroke-linecap:round; stroke-width:0.25;"/>
<line x1="533.700000" y1="56.000000" x2="541.700000" y2="56.000000"  style="stroke:black; stroke-linecap:round; stroke-width:0.25;"/>
<line x1="533.700000" y1="92.000000" x2="541.700000" y2="92.000000"  style="stroke:black; stroke-linecap:round; stroke-width:0.25;"/>
<line x1="533.700000" y1="124.000000" x2="533.700000" y2="92.000000"  style="stroke:black; stroke-linecap:round; stroke-width:0.25;"/>
<line x1="533.700000" y1="124.000000" x2="533.700000" y2="124.000000"  style="stroke:black; stroke-linecap:round; stroke-width:0.25;"/>
<line x1="541.700000" y1="56.000000" x2="541.700000" y2="84.000000"  style="stroke:black; stroke-linecap:round; stroke-width:0.25;"/>
<line x1="541.700000" y1="84.000000" x2="541.700000" y2="84.000000"  style="stroke:black; stroke-linecap:round; stroke-width:0.25;"/>
<line x1="541.700000" y1="84.000000" x2="545.700000" y2="84.000000"  style="stroke:black; stroke-linecap:round; stroke-width:0.25;"/>
<line x1="541.700000" y1="92.000000" x2="545.700000" y2="92.000000"  style="stroke:black; stroke-linecap:round; stroke-width:0.25;"/>
<line x1="687.600000" y1="88.000000" x2="691.600000" y2="88.000000"  style="stroke:black; stroke-linecap:round; stroke-width:0.25;"/>
<line x1="691.600000" y1="88.000000" x2="691.600000" y2="88.000000"  style="stroke:black; stroke-linecap:round; stroke-width:0.25;"/>
<line x1="691.600000" y1="88.000000" x2="695.600000" y2="88.000000"  style="stroke:black; stroke-linecap:round; stroke-width:0.25;"/>
<line x1="695.600000" y1="88.000000" x2="699.600000" y2="88.000000"  style="stroke:black; stroke-linecap:round; stroke-width:0.25;"/>
<line x1="699.600000" y1="88.000000" x2="709.600000" y2="88.000000"  style="stroke:black; stroke-linecap:round; stroke-width:0.25;"/>
</svg>
